<svg width="500" height="500" viewBox="0 0 500 500" fill="none" xmlns="http://www.w3.org/2000/svg">
    <path
        d="M364.28 379C358.59 374.9 351.96 370.51 350.83 363.59C349.61 356.16 355.37 349.48 361.21 344.73C367.05 339.98 373.83 335.35 375.96 328.13C378.96 317.87 370.51 307.06 360.38 303.64C350.25 300.22 339.17 302.21 328.7 304.39C299.47 310.48 270.53 317.82 241.59 325.16L189.85 335.96C184.21 344.02 186.24 355.69 192.43 363.33C198.62 370.97 208.05 375.26 217.43 378.06C222.87 379.68 229.19 381.53 231.36 386.77C234.07 393.34 228.49 400.06 224.63 406.03C214.53 421.66 215.99 444.24 229.03 457.52C242.07 470.8 265.75 472.25 279.47 459.69C284.84 454.77 288.47 448.3 293.28 442.81C298.09 437.32 304.71 432.6 311.96 433.17C318.96 433.72 324.52 438.92 330.51 442.56C341.51 449.26 355.74 450.85 367.51 445.66C379.28 440.47 388 428.16 387.8 415.29C387.58 400.31 376.45 387.68 364.28 379Z"
        fill="#474747" fill-opacity="0.1" />
    <path
        d="M417.68 151.2C417.43 142.2 415.88 131.31 407.54 128.05C403.7 126.55 398.77 126.92 396.22 123.68C393.87 120.68 395.04 116.16 397.35 113.14C399.66 110.12 402.9 107.9 405.18 104.85C407.118 102.293 408.293 99.2391 408.568 96.0424C408.844 92.8456 408.209 89.636 406.738 86.7848C405.266 83.9335 403.018 81.557 400.252 79.9299C397.487 78.3027 394.317 77.4915 391.11 77.5899C381.11 77.8499 372.69 86.6699 362.73 86.1499C344.89 85.2199 338.61 56.7699 320.73 55.6099L286.53 64.6099C282.856 71.6287 281.309 79.5672 282.08 87.4521C282.851 95.337 285.906 102.826 290.87 109C293.08 111.66 295.76 114.26 296.31 117.67C297.2 123.17 292.09 127.91 286.87 129.86C281.65 131.81 275.82 132.16 270.97 134.92C261.31 140.4 258.89 154.45 264.18 164.23C269.47 174.01 280.56 179.57 291.6 180.85C297.6 181.55 304.25 181.4 308.72 185.43C313.46 189.72 313.72 196.92 314.13 203.31C315.13 219.22 320.25 236.31 333.56 245.14C338.013 248.072 343.114 249.87 348.421 250.38C353.728 250.89 359.079 250.094 364.008 248.064C368.937 246.033 373.295 242.828 376.703 238.728C380.111 234.628 382.465 229.757 383.56 224.54C385.69 214.37 383.08 202.98 388.37 194.04C394.53 183.61 409.26 180.5 414.93 169.8C418 164.22 417.85 157.55 417.68 151.2Z"
        fill="#474747" fill-opacity="0.1" />
    <path
        d="M263.68 313.58C263.68 313.58 238.86 301.67 242.14 273.8C245.42 245.93 271.14 232.23 285.42 230.7C301 229 330 245.22 329.64 277.76C329.64 277.76 331.29 291.49 319.54 306.84C319.54 306.84 375.84 279.21 384.54 308.12C393.36 337.35 354.84 342.48 336.4 351.81C317.96 361.14 354.21 375.52 370.75 385.16C388.63 395.58 395.6 421.76 377.69 439.44C356.79 460.08 323.96 422.53 315.59 413.91C307.22 405.29 303.5 398.6 298.21 412.65C292.92 426.7 280.14 482.86 237.84 457.05C205.42 437.27 245.25 407.34 249.84 385.44C254.43 363.54 249.51 364.5 227.22 363.72C204.93 362.94 179.6 352.81 184.65 329.38C189.44 307.15 219.77 316.78 236.33 316.5C252.89 316.22 263.68 313.58 263.68 313.58Z"
        fill="#B95E38" />
    <path opacity="0.3"
        d="M263.68 313.58C263.68 313.58 238.86 301.67 242.14 273.8C245.42 245.93 271.14 232.23 285.42 230.7C301 229 330 245.22 329.64 277.76C329.64 277.76 331.29 291.49 319.54 306.84C319.54 306.84 375.84 279.21 384.54 308.12C393.36 337.35 354.84 342.48 336.4 351.81C317.96 361.14 354.21 375.52 370.75 385.16C388.63 395.58 395.6 421.76 377.69 439.44C356.79 460.08 323.96 422.53 315.59 413.91C307.22 405.29 303.5 398.6 298.21 412.65C292.92 426.7 280.14 482.86 237.84 457.05C205.42 437.27 245.25 407.34 249.84 385.44C254.43 363.54 249.51 364.5 227.22 363.72C204.93 362.94 179.6 352.81 184.65 329.38C189.44 307.15 219.77 316.78 236.33 316.5C252.89 316.22 263.68 313.58 263.68 313.58Z"
        fill="black" />
    <path
        d="M252.4 305.64C252.4 305.64 232.88 292.44 237.53 264.76C241.45 241.41 264.44 231.42 278.68 229.88C294.28 228.19 325.37 236.18 325.03 268.72C325.03 268.72 326.68 282.45 314.93 297.81C314.93 297.81 372.87 276.31 381.6 305.22C390.43 334.45 350.26 333.44 331.82 342.77C313.38 352.1 347.41 370.59 363.94 380.23C381.82 390.65 391.02 412.72 373.11 430.41C352.21 451.04 319.38 413.49 311.01 404.87C302.64 396.25 298.92 389.56 293.63 403.62C288.34 417.68 277.74 472.29 237.63 452.95C203.42 436.45 240.63 398.31 245.3 376.4C249.97 354.49 244.97 355.46 222.68 354.69C200.39 353.92 178.84 347.97 183.88 324.54C188.68 302.31 215.23 307.75 231.79 307.46C248.35 307.17 252.4 305.64 252.4 305.64Z"
        fill="#B95E38" />
    <path
        d="M244.48 311C232.82 311 221.15 310.19 209.63 312.55C199.79 314.55 188.56 321.55 189.12 332.95C189.68 344.35 200.56 346.65 209.94 346.95C215.94 347.12 221.85 346.81 227.81 346.74C234.1 346.67 241.39 346.35 247.01 349.62C258.65 356.39 253.43 369.35 249.01 378.62C243.9 389.23 238.63 399.83 234.55 410.9C230.81 421.07 228.76 432.12 234.55 442.11C240.42 452.32 252.02 453.72 261.47 447.67C267.031 443.966 271.661 439.028 275 433.24C277.69 428.72 278.63 423.91 280.24 418.99C282.107 413.245 284.414 407.652 287.14 402.26C289.06 398.48 292.32 391.05 296.76 389.44C300.11 388.23 304.37 393.18 306.61 395.2C311.12 399.27 315.41 403.59 319.79 407.82C328.36 416.09 337.69 426.06 349.79 428.62C360.79 430.93 371.79 424.84 374.28 413.62C376.68 403.05 372.38 390.62 362.95 384.85C357.88 381.76 351.77 380.39 346.47 377.61C340.282 374.4 334.495 370.469 329.23 365.9C324.81 362 319.5 356.7 318.64 350.56C317.78 344.42 322.87 340.19 327.79 337.62C337.04 332.8 347.47 332.07 357.16 328.62C365.52 325.62 378.59 319.67 377.86 308.91C377.09 297.51 363.72 294.91 354.52 294.85C341.52 294.85 328.96 300.04 316.38 302.72C312.85 303.47 309.31 304.19 305.76 304.85L307.25 306.85C318.84 285.67 325.25 253.2 300.15 239.27C277.15 226.5 246.78 241.87 242.33 267.43C240.45 278.27 244.67 288.12 250.11 297.29C253.455 303.212 257.66 308.604 262.59 313.29C262.82 312.43 263.06 311.57 263.29 310.71L244.43 310.97C242.57 310.97 242.93 313.86 244.76 313.83L263.63 313.57C265.01 313.57 265.17 311.75 264.34 311C260.954 307.785 257.957 304.184 255.41 300.27C250.02 292.41 244.66 282.89 244.71 273.1C244.79 267.506 246.222 262.014 248.885 257.093C251.547 252.172 255.361 247.968 260 244.84C270.53 237.84 283.5 235.02 295.46 240.16C311.27 246.97 316.52 261.63 314.08 277.84C312.56 287.62 309.359 297.062 304.62 305.75C304.523 305.982 304.488 306.236 304.519 306.486C304.55 306.735 304.645 306.973 304.796 307.174C304.946 307.376 305.146 307.535 305.377 307.636C305.607 307.737 305.86 307.777 306.11 307.75C315.4 306.03 324.67 304.05 333.78 301.56C344.88 298.56 358.65 294.63 369.48 300.9C375.28 304.25 376.73 311.19 372.32 316.4C368.38 321.05 362.2 323.75 356.6 325.8C347.81 329.03 338.36 329.87 329.68 333.58C322.43 336.69 314.36 342.36 315.86 351.33C317.53 361.33 327.86 369.19 335.66 374.46C340.44 377.724 345.508 380.546 350.8 382.89C356.67 385.47 362.59 386.76 366.8 392.06C374.4 401.66 374.56 419.36 361.88 424.9C349.2 430.44 336.68 419.63 327.94 411.61C319.94 404.22 312.56 395.74 303.85 389.12C301.77 387.53 299.46 385.78 296.71 386.42C293.5 387.18 291.05 390.42 289.27 392.96C283.34 401.35 279.27 411.6 276.48 421.45C273.32 432.75 264.92 446.07 252.32 448.39C237 451.19 231.76 432 234.48 420.47C237.01 409.74 242.18 399.47 246.87 389.55C250.13 382.69 254.87 375.55 256.51 368.02C258.82 357.65 253.66 347.61 243.12 344.92C232.58 342.23 221.03 344.33 210.35 344.04C205.9 343.92 200.02 343.95 196.28 341.15C190.33 336.71 191.28 328.35 195.55 323.15C203.71 313.3 219.68 313.65 231.32 313.56C235.82 313.56 240.32 313.8 244.81 313.8C246.67 313.84 246.31 311 244.48 311Z"
        fill="white" />
    <path opacity="0.2"
        d="M246.21 311.75C234.56 311.75 222.89 310.94 211.37 313.3C201.53 315.3 190.3 322.3 190.86 333.7C191.42 345.1 202.3 347.4 211.68 347.7C217.63 347.87 223.59 347.56 229.55 347.49C235.83 347.42 243.13 347.1 248.75 350.37C260.39 357.14 255.17 370.1 250.75 379.37C245.64 389.98 240.36 400.58 236.29 411.65C232.55 421.82 230.5 432.87 236.24 442.86C242.11 453.07 253.71 454.47 263.16 448.42C268.739 444.723 273.39 439.788 276.75 434C279.44 429.48 280.38 424.67 281.99 419.75C283.856 414.004 286.163 408.411 288.89 403.02C290.81 399.24 294.07 391.8 298.51 390.2C301.86 388.99 306.12 393.94 308.35 395.96C312.87 400.03 317.16 404.35 321.54 408.58C330.11 416.85 339.44 426.82 351.54 429.38C362.54 431.69 373.49 425.6 376.03 414.38C378.43 403.8 374.13 391.38 364.7 385.61C359.63 382.52 353.52 381.15 348.22 378.37C342.038 375.164 336.258 371.237 331 366.67C326.58 362.77 321.27 357.47 320.41 351.33C319.55 345.19 324.64 340.96 329.56 338.39C338.81 333.56 349.24 332.84 358.93 329.39C367.29 326.39 380.36 320.39 379.63 309.68C378.86 298.28 365.48 295.68 356.29 295.62C343.29 295.62 330.72 300.81 318.15 303.49C314.61 304.24 311.07 304.96 307.52 305.62L309.02 307.62C320.61 286.44 327.02 253.97 301.92 240.04C278.92 227.27 248.55 242.64 244.1 268.2C242.22 279.04 246.44 288.89 251.88 298.06C255.218 303.984 259.421 309.377 264.35 314.06C264.59 313.21 264.83 312.35 265.06 311.49L246.19 311.75C244.34 311.75 244.7 314.64 246.53 314.61L265.4 314.35C266.78 314.35 266.94 312.53 266.11 311.78C262.726 308.563 259.729 304.962 257.18 301.05C251.79 293.19 246.43 283.67 246.48 273.88C246.556 268.286 247.985 262.793 250.644 257.87C253.303 252.947 257.113 248.741 261.75 245.61C272.28 238.61 285.25 235.78 297.21 240.93C313.02 247.74 318.27 262.4 315.83 278.61C314.31 288.39 311.109 297.832 306.37 306.52C306.27 306.752 306.233 307.007 306.262 307.258C306.292 307.509 306.387 307.748 306.538 307.95C306.689 308.153 306.89 308.312 307.123 308.412C307.355 308.512 307.609 308.55 307.86 308.52C317.15 306.8 326.42 304.82 335.52 302.33C346.63 299.33 360.4 295.4 371.23 301.67C377.03 305.02 378.48 311.96 374.07 317.17C370.13 321.82 363.95 324.52 358.35 326.57C349.56 329.8 340.11 330.64 331.43 334.35C324.18 337.46 316.11 343.13 317.61 352.1C319.27 362.1 329.61 369.96 337.41 375.23C342.19 378.494 347.258 381.316 352.55 383.66C358.42 386.24 364.34 387.53 368.55 392.83C376.16 402.42 376.32 420.13 363.63 425.67C350.94 431.21 338.44 420.4 329.7 412.38C321.7 404.99 314.32 396.51 305.61 389.89C303.53 388.3 301.21 386.54 298.46 387.19C295.26 387.95 292.81 391.19 291.03 393.73C285.1 402.12 281.03 412.37 278.24 422.22C275.08 433.51 266.68 446.84 254.08 449.15C238.77 451.97 233.49 432.77 236.21 421.25C238.74 410.51 243.9 400.25 248.6 390.33C251.85 383.47 256.6 376.28 258.23 368.8C260.54 358.43 255.39 348.39 244.85 345.69C234.31 342.99 222.76 345.11 212.07 344.82C207.63 344.7 201.75 344.72 198.01 341.93C192.01 337.49 193.01 329.13 197.27 323.93C205.44 314.08 221.4 314.43 233.05 314.34C237.55 314.34 242.05 314.58 246.54 314.58C248.4 314.61 248.05 311.75 246.21 311.75Z"
        fill="black" />
    <path
        d="M244.48 311C232.82 311 221.15 310.19 209.63 312.55C199.79 314.55 188.56 321.55 189.12 332.95C189.68 344.35 200.56 346.65 209.94 346.95C215.94 347.12 221.85 346.81 227.81 346.74C234.1 346.67 241.39 346.35 247.01 349.62C258.65 356.39 253.43 369.35 249.01 378.62C243.9 389.23 238.63 399.83 234.55 410.9C230.81 421.07 228.76 432.12 234.55 442.11C240.42 452.32 252.02 453.72 261.47 447.67C267.031 443.966 271.661 439.028 275 433.24C277.69 428.72 278.63 423.91 280.24 418.99C282.107 413.245 284.414 407.652 287.14 402.26C289.06 398.48 292.32 391.05 296.76 389.44C300.11 388.23 304.37 393.18 306.61 395.2C311.12 399.27 315.41 403.59 319.79 407.82C328.36 416.09 337.69 426.06 349.79 428.62C360.79 430.93 371.79 424.84 374.28 413.62C376.68 403.05 372.38 390.62 362.95 384.85C357.88 381.76 351.77 380.39 346.47 377.61C340.282 374.4 334.495 370.469 329.23 365.9C324.81 362 319.5 356.7 318.64 350.56C317.78 344.42 322.87 340.19 327.79 337.62C337.04 332.8 347.47 332.07 357.16 328.62C365.52 325.62 378.59 319.67 377.86 308.91C377.09 297.51 363.72 294.91 354.52 294.85C341.52 294.85 328.96 300.04 316.38 302.72C312.85 303.47 309.31 304.19 305.76 304.85L307.25 306.85C318.84 285.67 325.25 253.2 300.15 239.27C277.15 226.5 246.78 241.87 242.33 267.43C240.45 278.27 244.67 288.12 250.11 297.29C253.455 303.212 257.66 308.604 262.59 313.29C262.82 312.43 263.06 311.57 263.29 310.71L244.43 310.97C242.57 310.97 242.93 313.86 244.76 313.83L263.63 313.57C265.01 313.57 265.17 311.75 264.34 311C260.954 307.785 257.957 304.184 255.41 300.27C250.02 292.41 244.66 282.89 244.71 273.1C244.79 267.506 246.222 262.014 248.885 257.093C251.547 252.172 255.361 247.968 260 244.84C270.53 237.84 283.5 235.02 295.46 240.16C311.27 246.97 316.52 261.63 314.08 277.84C312.56 287.62 309.359 297.062 304.62 305.75C304.523 305.982 304.488 306.236 304.519 306.486C304.55 306.735 304.645 306.973 304.796 307.174C304.946 307.376 305.146 307.535 305.377 307.636C305.607 307.737 305.86 307.777 306.11 307.75C315.4 306.03 324.67 304.05 333.78 301.56C344.88 298.56 358.65 294.63 369.48 300.9C375.28 304.25 376.73 311.19 372.32 316.4C368.38 321.05 362.2 323.75 356.6 325.8C347.81 329.03 338.36 329.87 329.68 333.58C322.43 336.69 314.36 342.36 315.86 351.33C317.53 361.33 327.86 369.19 335.66 374.46C340.44 377.724 345.508 380.546 350.8 382.89C356.67 385.47 362.59 386.76 366.8 392.06C374.4 401.66 374.56 419.36 361.88 424.9C349.2 430.44 336.68 419.63 327.94 411.61C319.94 404.22 312.56 395.74 303.85 389.12C301.77 387.53 299.46 385.78 296.71 386.42C293.5 387.18 291.05 390.42 289.27 392.96C283.34 401.35 279.27 411.6 276.48 421.45C273.32 432.75 264.92 446.07 252.32 448.39C237 451.19 231.76 432 234.48 420.47C237.01 409.74 242.18 399.47 246.87 389.55C250.13 382.69 254.87 375.55 256.51 368.02C258.82 357.65 253.66 347.61 243.12 344.92C232.58 342.23 221.03 344.33 210.35 344.04C205.9 343.92 200.02 343.95 196.28 341.15C190.33 336.71 191.28 328.35 195.55 323.15C203.71 313.3 219.68 313.65 231.32 313.56C235.82 313.56 240.32 313.8 244.81 313.8C246.67 313.84 246.31 311 244.48 311Z"
        fill="white" />
    <path opacity="0.3"
        d="M283.92 342.83C280.14 344.83 279.21 349.15 280.82 352.94C281.264 353.857 281.887 354.676 282.654 355.346C283.42 356.017 284.314 356.527 285.282 356.845C286.249 357.163 287.271 357.284 288.286 357.199C289.301 357.114 290.289 356.825 291.19 356.35C292.927 355.241 294.16 353.495 294.624 351.487C295.088 349.479 294.745 347.369 293.67 345.61C292.462 343.941 290.668 342.789 288.647 342.384C286.626 341.98 284.527 342.354 282.77 343.43"
        fill="black" />
    <path opacity="0.3"
        d="M286.51 366.17C282.74 368.17 281.81 372.49 283.41 376.28C283.855 377.196 284.479 378.014 285.245 378.684C286.012 379.354 286.905 379.864 287.872 380.183C288.839 380.502 289.86 380.623 290.875 380.54C291.89 380.458 292.878 380.172 293.78 379.7C295.504 378.59 296.728 376.852 297.193 374.855C297.658 372.858 297.327 370.758 296.27 369C295.063 367.326 293.267 366.171 291.243 365.766C289.22 365.362 287.118 365.738 285.36 366.82"
        fill="black" />
    <path
        d="M283.92 340.45C280.14 342.5 279.21 346.77 280.82 350.56C281.262 351.479 281.884 352.299 282.65 352.972C283.415 353.645 284.308 354.158 285.276 354.479C286.243 354.8 287.265 354.923 288.281 354.841C289.298 354.758 290.287 354.473 291.19 354C292.927 352.891 294.16 351.145 294.624 349.137C295.088 347.129 294.745 345.019 293.67 343.26C292.462 341.591 290.668 340.439 288.647 340.034C286.626 339.63 284.527 340.004 282.77 341.08"
        fill="#3C55AC" />
    <path
        d="M286.51 363.8C282.74 365.8 281.81 370.12 283.41 373.91C283.855 374.826 284.479 375.644 285.246 376.314C286.012 376.984 286.906 377.493 287.873 377.811C288.84 378.129 289.862 378.25 290.876 378.165C291.891 378.081 292.878 377.794 293.78 377.32C295.517 376.211 296.75 374.466 297.216 372.458C297.681 370.451 297.342 368.341 296.27 366.58C295.06 364.91 293.265 363.758 291.242 363.354C289.219 362.949 287.119 363.323 285.36 364.4"
        fill="#3C55AC" />
    <g opacity="0.3">
        <path opacity="0.3"
            d="M269.81 277.29C269.739 277.994 269.462 278.662 269.012 279.208C268.562 279.755 267.96 280.155 267.282 280.36C266.605 280.564 265.882 280.563 265.204 280.357C264.527 280.151 263.927 279.748 263.478 279.201C263.03 278.653 262.754 277.985 262.685 277.28C262.616 276.576 262.758 275.867 263.092 275.243C263.426 274.619 263.938 274.108 264.562 273.774C265.186 273.441 265.896 273.3 266.6 273.37C267.069 273.415 267.524 273.552 267.94 273.774C268.355 273.996 268.723 274.297 269.021 274.662C269.319 275.026 269.543 275.446 269.678 275.897C269.814 276.348 269.858 276.821 269.81 277.29Z"
            fill="black" />
        <path opacity="0.3"
            d="M300.62 270.66C300.549 271.365 300.271 272.033 299.82 272.579C299.37 273.125 298.767 273.526 298.089 273.73C297.411 273.934 296.688 273.932 296.01 273.725C295.333 273.518 294.733 273.114 294.285 272.566C293.837 272.017 293.562 271.348 293.494 270.643C293.427 269.938 293.57 269.229 293.906 268.605C294.241 267.981 294.754 267.471 295.38 267.139C296.005 266.807 296.715 266.668 297.42 266.74C298.363 266.839 299.229 267.306 299.828 268.04C300.428 268.775 300.712 269.717 300.62 270.66Z"
            fill="black" />
        <path opacity="0.3"
            d="M291.46 275.08C291.906 275.148 292.33 275.318 292.698 275.579C293.066 275.839 293.368 276.182 293.58 276.58C294.198 277.766 294.402 279.125 294.16 280.44C293.857 282.336 293.037 284.111 291.79 285.57C290.192 287.462 288.07 288.84 285.691 289.53C283.313 290.22 280.783 290.193 278.42 289.45C276.58 288.893 274.931 287.833 273.66 286.39C272.752 285.412 272.196 284.16 272.08 282.83C272.049 282.379 272.123 281.926 272.297 281.508C272.47 281.09 272.739 280.717 273.08 280.42C274.4 279.34 276.27 279.22 277.92 278.85C279.389 278.567 280.841 278.203 282.27 277.76C283.713 277.374 285.132 276.903 286.52 276.35C288.12 275.78 289.76 274.88 291.46 275.08Z"
            fill="black" />
    </g>
    <path
        d="M268.54 276C268.469 276.705 268.192 277.372 267.742 277.919C267.292 278.465 266.69 278.866 266.012 279.07C265.335 279.275 264.612 279.274 263.934 279.068C263.257 278.861 262.657 278.459 262.208 277.911C261.76 277.364 261.484 276.695 261.415 275.991C261.346 275.286 261.488 274.577 261.822 273.953C262.156 273.329 262.668 272.818 263.292 272.485C263.916 272.151 264.626 272.011 265.33 272.08C266.275 272.176 267.143 272.643 267.745 273.377C268.346 274.112 268.632 275.055 268.54 276Z"
        fill="white" />
    <path
        d="M299.35 269.391C299.279 270.095 299.001 270.763 298.55 271.309C298.1 271.856 297.497 272.256 296.819 272.46C296.141 272.664 295.418 272.663 294.74 272.455C294.063 272.248 293.463 271.845 293.015 271.296C292.567 270.747 292.292 270.078 292.224 269.373C292.157 268.668 292.3 267.959 292.636 267.336C292.971 266.712 293.484 266.202 294.11 265.87C294.735 265.538 295.445 265.399 296.15 265.471C297.093 265.569 297.959 266.036 298.558 266.771C299.158 267.505 299.442 268.447 299.35 269.391Z"
        fill="white" />
    <path
        d="M290.19 273.82C290.637 273.884 291.063 274.052 291.433 274.311C291.803 274.57 292.107 274.912 292.32 275.31C292.932 276.498 293.135 277.855 292.9 279.17C292.597 281.068 291.773 282.843 290.52 284.3C288.926 286.198 286.804 287.579 284.424 288.27C282.044 288.961 279.512 288.929 277.15 288.18C275.313 287.62 273.666 286.565 272.39 285.13C271.48 284.15 270.924 282.893 270.81 281.56C270.779 281.109 270.853 280.656 271.027 280.238C271.2 279.82 271.468 279.447 271.81 279.15C273.13 278.07 275 277.95 276.65 277.58C278.119 277.297 279.571 276.933 281 276.49C282.446 276.103 283.868 275.632 285.26 275.08C286.85 274.51 288.49 273.61 290.19 273.82Z"
        fill="white" />
    <g opacity="0.3">
        <path opacity="0.3"
            d="M314.53 310.49C313.61 309.14 311.69 309.07 310.06 309.17C297.82 309.92 285.81 312.72 273.87 315.51C271.16 316.15 268.33 316.84 266.23 318.68C262.71 321.76 262.31 327.01 262.17 331.68L259.33 343.19C259.512 344.824 260.199 346.36 261.296 347.584C262.392 348.809 263.843 349.661 265.446 350.022C267.05 350.383 268.726 350.235 270.241 349.598C271.756 348.961 273.036 347.868 273.9 346.47C275.71 343.54 276.13 337.03 278.56 334.59C280.2 332.92 281.23 332.66 283.51 332.12C295.23 329.34 307.73 325.6 313.89 315.25C314.76 313.81 315.5 311.89 314.53 310.49Z"
            fill="black" />
    </g>
    <path
        d="M296.28 238.14C296.45 238.14 296.86 239.44 297.28 241.93C297.554 243.453 297.715 244.994 297.76 246.54C297.846 248.646 297.579 250.752 296.97 252.77C296.179 255.28 294.72 257.526 292.75 259.27C290.469 261.31 287.61 262.589 284.57 262.93C281.189 263.273 277.792 262.462 274.93 260.63C273.4 259.682 272.066 258.45 271 257C269.749 255.38 269.188 253.332 269.44 251.3C269.612 250.219 270.083 249.208 270.8 248.38C271.568 247.496 272.637 246.93 273.8 246.79C274.896 246.675 276.001 246.906 276.96 247.45C277.869 247.957 278.631 248.691 279.17 249.58C279.63 250.424 279.917 251.351 280.017 252.307C280.117 253.263 280.026 254.229 279.75 255.15C279.282 256.81 278.405 258.326 277.2 259.56C275.015 261.797 272.055 263.111 268.93 263.23C266.277 263.292 263.664 262.58 261.41 261.18C259.593 260.056 258.038 258.556 256.85 256.78C255.983 255.463 255.309 254.029 254.85 252.52C254.11 250.05 254.19 248.61 254.34 248.6C254.49 248.59 254.81 249.93 255.8 252.17C256.396 253.508 257.155 254.768 258.06 255.92C259.233 257.421 260.699 258.666 262.37 259.58C264.347 260.677 266.593 261.194 268.85 261.07C271.379 260.885 273.747 259.761 275.49 257.92C276.387 256.959 277.032 255.791 277.37 254.52C277.729 253.313 277.599 252.013 277.01 250.9C276.716 250.408 276.293 250.005 275.788 249.733C275.283 249.462 274.713 249.333 274.14 249.36C273.58 249.47 273.07 249.757 272.685 250.178C272.3 250.599 272.06 251.133 272 251.7C271.876 253.054 272.277 254.404 273.12 255.47C273.989 256.659 275.071 257.676 276.31 258.47C277.92 259.506 279.742 260.168 281.641 260.406C283.541 260.645 285.47 260.454 287.286 259.847C289.101 259.24 290.758 258.234 292.133 256.902C293.508 255.57 294.566 253.946 295.23 252.15C295.875 250.333 296.239 248.427 296.31 246.5C296.4 244.78 296.31 243.26 296.31 242.02C296.16 239.56 296.09 238.16 296.28 238.14Z"
        fill="white" />
    <path
        d="M217.06 312.42C217.14 312.6 216.7 312.9 216.41 313.65C216.239 314.103 216.164 314.587 216.19 315.07C216.233 315.72 216.403 316.355 216.69 316.94C216.99 317.65 217.44 318.42 217.89 319.4C218.453 320.534 218.699 321.798 218.6 323.06C218.498 323.817 218.221 324.54 217.79 325.17C217.407 325.721 216.975 326.236 216.5 326.71C215.62 327.58 214.82 328.46 214.84 328.98C214.83 329.327 214.947 329.665 215.17 329.93C215.44 330.34 215.88 330.82 216.28 331.46C216.73 332.162 216.972 332.977 216.98 333.81C216.975 334.538 216.829 335.258 216.55 335.93C216.085 336.99 215.468 337.977 214.72 338.86C214.193 339.508 213.74 340.212 213.37 340.96C213.137 341.438 213.04 341.97 213.09 342.499C213.139 343.028 213.333 343.534 213.65 343.96C214.11 344.57 214.65 344.63 214.65 344.83C214.65 345.03 214.53 345.02 214.23 345.06C213.784 345.106 213.336 344.989 212.97 344.73C212.393 344.335 211.95 343.773 211.7 343.12C211.539 342.708 211.445 342.272 211.42 341.83C211.407 341.337 211.471 340.844 211.61 340.37C212.12 338.37 213.73 336.81 214.28 335.1C214.42 334.702 214.488 334.282 214.48 333.86C214.449 333.499 214.322 333.154 214.11 332.86C213.87 332.48 213.45 332.05 213.01 331.42C212.446 330.668 212.169 329.739 212.23 328.8C212.33 327.905 212.699 327.061 213.29 326.38C213.723 325.878 214.183 325.4 214.67 324.95C215.39 324.385 215.926 323.62 216.21 322.75C216.299 321.891 216.179 321.023 215.86 320.22C215.56 319.35 215.17 318.47 214.93 317.58C214.665 316.737 214.594 315.845 214.72 314.97C214.823 314.299 215.103 313.668 215.53 313.14C216.32 312.24 217 312.27 217.06 312.42Z"
        fill="white" />
    <path
        d="M223.66 313.17C223.83 313.1 224.17 313.46 224.66 314.17C225.333 315.206 225.89 316.313 226.32 317.47C227.033 319.273 227.307 321.22 227.12 323.15C226.986 324.354 226.609 325.517 226.01 326.57C225.38 327.65 224.62 328.57 224.01 329.39C223.497 330.018 223.23 330.81 223.26 331.62C223.32 332.28 223.94 333.21 224.26 334.52C224.438 335.666 224.285 336.838 223.82 337.9C223.48 338.78 223.11 339.52 222.88 340.14C222.482 341.092 222.429 342.153 222.73 343.14C222.97 343.78 223.38 344.06 223.3 344.24C223.22 344.42 222.62 344.48 221.89 343.7C221.466 343.136 221.175 342.483 221.039 341.79C220.902 341.098 220.923 340.383 221.1 339.7C221.28 338.86 221.56 338.07 221.77 337.26C222.014 336.557 222.066 335.801 221.92 335.07C221.789 334.659 221.622 334.261 221.42 333.88C221.128 333.304 220.912 332.692 220.78 332.06C220.658 331.31 220.72 330.541 220.96 329.82C221.183 329.172 221.493 328.556 221.88 327.99C222.59 326.93 223.33 326.1 223.81 325.31C224.272 324.553 224.588 323.715 224.74 322.84C224.994 321.237 224.929 319.599 224.55 318.02C224.26 316.61 223.91 315.44 223.73 314.61C223.55 313.78 223.5 313.24 223.66 313.17Z"
        fill="white" />
    <path
        d="M346.57 330.77C346.57 330.85 346.38 330.89 346.1 330.77C345.694 330.631 345.343 330.365 345.1 330.01C344.723 329.472 344.48 328.852 344.39 328.2C344.29 327.404 344.29 326.597 344.39 325.8C344.486 325.053 344.428 324.294 344.22 323.57C343.99 322.99 343.52 322.63 342.58 322.24C341.309 321.849 340.148 321.164 339.19 320.24C338.859 319.885 338.608 319.463 338.454 319.003C338.3 318.542 338.248 318.053 338.3 317.57C338.454 316.759 338.797 315.995 339.3 315.34C339.583 314.998 339.797 314.604 339.93 314.18C339.951 314.043 339.943 313.903 339.907 313.768C339.871 313.634 339.807 313.509 339.72 313.4C339.29 312.71 338.27 311.91 337.53 310.88C336.273 309.128 335.576 307.037 335.53 304.88C335.484 303.466 335.775 302.06 336.38 300.78C336.83 299.89 337.26 299.52 337.38 299.6C337.76 299.76 336.87 301.69 337.38 304.72C337.652 306.442 338.369 308.062 339.46 309.42C339.784 309.805 340.135 310.166 340.51 310.5C341.016 310.946 341.472 311.446 341.87 311.99C342.147 312.368 342.346 312.797 342.455 313.251C342.565 313.706 342.584 314.178 342.51 314.64C342.334 315.423 341.993 316.16 341.51 316.8C341.242 317.128 341.042 317.505 340.92 317.91C340.908 318.031 340.923 318.154 340.965 318.268C341.006 318.382 341.073 318.486 341.16 318.57C341.878 319.224 342.722 319.724 343.64 320.04C344.232 320.315 344.779 320.679 345.26 321.12C345.763 321.613 346.131 322.225 346.33 322.9C346.55 323.935 346.526 325.007 346.26 326.03C346.087 326.703 345.97 327.389 345.91 328.08C345.874 328.559 345.925 329.04 346.06 329.5C346.2 330.3 346.65 330.58 346.57 330.77Z"
        fill="white" />
    <path
        d="M355.3 327.5C355.22 327.61 354.62 327.5 354.07 326.6C353.77 326.082 353.57 325.512 353.48 324.92C353.382 324.198 353.331 323.469 353.33 322.74C353.34 321.963 353.283 321.187 353.16 320.42C353.103 320.067 352.981 319.728 352.8 319.42C352.726 319.289 352.632 319.171 352.52 319.07C352.405 318.943 352.274 318.832 352.13 318.74C351.8 318.52 351.35 318.29 350.83 317.96C350.116 317.552 349.557 316.919 349.24 316.16C349.08 315.705 349.028 315.219 349.09 314.74C349.138 314.402 349.212 314.068 349.31 313.74C349.364 313.543 349.404 313.343 349.43 313.14C349.454 312.961 349.454 312.779 349.43 312.6C349.204 311.725 348.74 310.929 348.09 310.3C347.4 309.56 346.57 308.84 345.83 307.96C344.524 306.36 343.817 304.355 343.83 302.29C343.81 300.95 344.137 299.627 344.78 298.45C345.26 297.65 345.69 297.33 345.83 297.45C346.19 297.63 345.25 299.4 345.66 302.19C345.886 303.763 346.584 305.231 347.66 306.4C348.28 307.06 349.1 307.7 349.96 308.57C350.991 309.529 351.709 310.777 352.02 312.15C352.094 312.549 352.117 312.956 352.09 313.36C352.058 313.73 351.987 314.095 351.88 314.45C351.69 315.06 351.68 315.28 351.71 315.35C351.839 315.598 352.037 315.803 352.28 315.94C352.65 316.2 353.12 316.47 353.62 316.85C354.16 317.255 354.595 317.783 354.89 318.39C355.153 318.929 355.312 319.513 355.36 320.11C355.425 321.022 355.381 321.939 355.23 322.84C355.001 323.948 354.947 325.085 355.07 326.21C355.15 326.94 355.44 327.34 355.3 327.5Z"
        fill="white" />
    <path
        d="M275.16 430.9C275.05 431.07 274.45 430.79 273.36 430.81C272.684 430.83 272.012 430.931 271.36 431.11C270.6 431.31 269.75 431.65 268.72 432.01C267.538 432.492 266.276 432.747 265 432.76C263.453 432.713 261.952 432.227 260.67 431.36C258.04 429.67 256.15 427.05 253.67 425.55C252.536 424.831 251.213 424.466 249.87 424.5C248.5 424.5 247.06 424.77 245.58 424.89C244.113 425.063 242.626 424.933 241.21 424.51C239.979 424.125 238.837 423.5 237.85 422.67C236.408 421.511 235.403 419.896 235 418.09C234.76 416.82 235 416.09 235.14 416.09C235.28 416.09 235.48 416.74 235.96 417.74C236.637 419.13 237.672 420.315 238.96 421.17C239.823 421.744 240.781 422.161 241.79 422.4C242.954 422.655 244.156 422.682 245.33 422.48C246.816 422.217 248.315 422.03 249.82 421.92C251.653 421.845 253.466 422.326 255.02 423.3C256.427 424.217 257.716 425.302 258.86 426.53C259.815 427.547 260.852 428.483 261.96 429.33C262.862 430.019 263.933 430.451 265.06 430.58C266.106 430.625 267.152 430.503 268.16 430.22C269.116 429.963 270.088 429.772 271.07 429.65C271.855 429.561 272.65 429.605 273.42 429.78C274.78 430.14 275.26 430.78 275.16 430.9Z"
        fill="white" />
    <path
        d="M277.71 420.36C277.58 420.52 277.03 420.18 276 420.04C274.502 419.916 272.996 420.128 271.59 420.66C270.506 421.039 269.4 421.356 268.28 421.61C266.813 421.967 265.273 421.873 263.86 421.34C262.413 420.641 261.15 419.614 260.17 418.34C259.348 417.248 258.351 416.298 257.22 415.53C256.095 414.997 254.823 414.86 253.61 415.14C252.169 415.43 250.708 415.61 249.24 415.68C246.595 415.646 244.036 414.739 241.96 413.1C240.581 412.05 239.482 410.677 238.76 409.1C238.29 407.98 238.27 407.3 238.41 407.24C238.55 407.18 238.95 407.72 239.63 408.58C240.575 409.768 241.719 410.783 243.01 411.58C244.862 412.742 247.015 413.33 249.2 413.27C250.545 413.128 251.881 412.907 253.2 412.61C254.034 412.458 254.883 412.404 255.73 412.45C256.688 412.505 257.621 412.775 258.46 413.24C259.869 414.145 261.096 415.305 262.08 416.66C262.801 417.662 263.729 418.497 264.8 419.11C265.781 419.527 266.862 419.645 267.91 419.45C269.01 419.32 270.08 419.05 271.11 418.85C272.807 418.401 274.599 418.463 276.26 419.03C277.46 419.58 277.82 420.26 277.71 420.36Z"
        fill="white" />
    <path
        d="M361.69 387.93C361.8 388.09 361.31 388.54 360.89 389.55C360.651 390.172 360.483 390.82 360.39 391.48C360.27 392.25 360.25 393.16 360.18 394.25C360.146 395.528 359.878 396.789 359.39 397.97C358.732 399.37 357.692 400.555 356.39 401.39C353.8 403.13 350.64 403.83 348.3 405.49C347.19 406.246 346.331 407.314 345.83 408.56C345.3 409.82 344.97 411.25 344.5 412.65C344.074 414.067 343.367 415.383 342.42 416.52C341.584 417.493 340.565 418.292 339.42 418.87C337.786 419.735 335.907 420.021 334.09 419.68C332.83 419.39 332.28 418.91 332.34 418.77C332.4 418.63 333.07 418.77 334.18 418.67C335.469 418.608 336.729 418.261 337.869 417.654C339.008 417.047 339.999 416.195 340.77 415.16C341.46 414.19 341.959 413.097 342.24 411.94C342.584 410.472 343.005 409.024 343.5 407.6C344.158 405.884 345.319 404.406 346.83 403.36C348.229 402.437 349.733 401.685 351.31 401.12C352.62 400.64 353.891 400.059 355.11 399.38C356.102 398.827 356.922 398.01 357.48 397.02C357.939 396.075 358.243 395.062 358.38 394.02C358.522 393.04 358.732 392.071 359.01 391.12C359.224 390.369 359.562 389.659 360.01 389.02C360.84 388 361.62 387.79 361.69 387.93Z"
        fill="white" />
    <path
        d="M353 381.42C353.09 381.6 352.56 381.97 352 382.86C351.299 384.19 350.9 385.659 350.83 387.16C350.748 388.304 350.604 389.442 350.4 390.57C350.146 392.058 349.449 393.435 348.4 394.52C347.193 395.576 345.754 396.333 344.2 396.73C342.871 397.054 341.604 397.595 340.45 398.33C339.515 399.155 338.888 400.273 338.67 401.5C338.36 402.935 337.946 404.346 337.43 405.72C336.357 408.14 334.51 410.135 332.18 411.39C330.672 412.239 328.98 412.705 327.25 412.75C326.04 412.75 325.4 412.49 325.41 412.33C325.42 412.17 326.05 412.03 327.12 411.74C328.586 411.339 329.973 410.69 331.22 409.82C333.02 408.587 334.412 406.847 335.22 404.82C335.632 403.525 335.966 402.206 336.22 400.87C336.408 400.046 336.694 399.247 337.07 398.49C337.502 397.631 338.12 396.879 338.88 396.29C340.268 395.35 341.817 394.672 343.45 394.29C344.657 394.026 345.793 393.504 346.78 392.76C347.544 392.021 348.079 391.076 348.32 390.04C348.64 388.98 348.81 387.89 349.03 386.86C349.296 385.125 350.065 383.505 351.24 382.2C352.21 381.34 353 381.28 353 381.42Z"
        fill="white" />
    <path
        d="M253.12 283.7C252.911 283.477 252.736 283.224 252.6 282.95C252.181 282.239 251.81 281.501 251.49 280.74C250.401 278.225 249.726 275.551 249.49 272.82C249.272 270.09 249.491 267.342 250.14 264.68C250.327 263.876 250.575 263.087 250.88 262.32C250.968 262.027 251.096 261.748 251.26 261.49C251.35 261.49 250.91 262.74 250.5 264.76C249.405 270.056 249.856 275.554 251.8 280.6C252.57 282.53 253.2 283.65 253.12 283.7Z"
        fill="white" />
    <path
        d="M257.29 291.38C257.15 291.38 256.91 290.77 256.44 290.13C255.97 289.49 255.44 289.06 255.52 288.93C255.6 288.8 256.31 289.07 256.86 289.82C257.41 290.57 257.43 291.36 257.29 291.38Z"
        fill="white" />
    <path
        d="M186.57 335.79C186.43 335.505 186.329 335.203 186.27 334.89C186.039 334.058 185.875 333.209 185.78 332.35C185.623 331.08 185.572 329.799 185.63 328.52C185.721 326.953 185.952 325.397 186.32 323.87C186.719 322.352 187.254 320.872 187.92 319.45C188.466 318.291 189.115 317.183 189.86 316.14C190.346 315.432 190.888 314.763 191.48 314.14C191.684 313.894 191.919 313.675 192.18 313.49C192.25 313.56 191.33 314.54 190.18 316.34C189.499 317.399 188.894 318.505 188.37 319.65C187.096 322.459 186.338 325.473 186.13 328.55C186.043 329.805 186.043 331.065 186.13 332.32C186.33 334.46 186.67 335.76 186.57 335.79Z"
        fill="white" />
    <path
        d="M192.32 344C191.385 343.557 190.561 342.911 189.905 342.111C189.25 341.31 188.78 340.374 188.53 339.37C188.67 339.31 189.27 340.51 190.31 341.78C191.35 343.05 192.41 343.84 192.32 344Z"
        fill="white" />
    <path
        d="M243.92 405.13C244.379 404.103 244.893 403.102 245.46 402.13C246.46 400.3 247.69 397.74 249.06 394.9C250.43 392.06 251.69 389.49 252.67 387.66C253.15 386.646 253.719 385.675 254.37 384.76C253.982 385.811 253.521 386.834 252.99 387.82L249.53 395.13C248.16 397.97 246.84 400.52 245.78 402.31C245.26 403.2 244.78 403.91 244.48 404.39C244.18 404.87 244 405.15 243.92 405.13Z"
        fill="white" />
    <path
        d="M242.42 440.8C241.865 440.407 241.387 439.916 241.01 439.35C239.017 436.713 237.943 433.496 237.95 430.19C237.909 429.514 237.994 428.836 238.2 428.19C238.111 432.755 239.602 437.209 242.42 440.8Z"
        fill="white" />
    <path
        d="M281.19 377.58C280.649 377.025 280.233 376.36 279.97 375.63C279.644 374.857 279.409 374.048 279.27 373.22C278.943 371.172 279.168 369.073 279.92 367.14C280.232 366.359 280.635 365.617 281.12 364.93C281.534 364.275 282.083 363.716 282.73 363.29C282.79 363.36 282.16 363.96 281.43 365.14C280.485 366.675 279.894 368.401 279.7 370.194C279.506 371.986 279.715 373.799 280.31 375.5C280.78 376.8 281.27 377.53 281.19 377.58Z"
        fill="white" />
    <path
        d="M279.57 352.32C279.138 351.872 278.814 351.332 278.62 350.74C278.07 349.336 277.858 347.822 278 346.32C278.131 344.818 278.618 343.368 279.42 342.09C279.717 341.544 280.134 341.072 280.64 340.71C280.373 341.252 280.072 341.776 279.74 342.28C279.061 343.547 278.643 344.937 278.511 346.367C278.378 347.798 278.535 349.241 278.97 350.61C279.205 351.168 279.405 351.739 279.57 352.32Z"
        fill="white" />
    <path
        d="M311.41 300C310.11 298.45 308.68 296.81 306.72 296.28C304.14 295.59 301.54 297 299.17 298.21C289.04 303.362 277.695 305.648 266.36 304.82C262.76 303.97 262.5 302.97 259.74 304.41C258.388 305.2 257.214 306.262 256.293 307.529C255.372 308.796 254.724 310.24 254.39 311.77C253.746 313.824 253.87 316.041 254.74 318.01C255.852 319.813 257.479 321.241 259.41 322.11C260.16 322.52 260.93 322.9 261.7 323.26C260.38 327.92 259.1 333.38 257.7 336.93C257.043 338.219 256.782 339.673 256.95 341.11C257.35 342.97 259.07 344.2 260.65 345.24C262.87 346.71 265.56 348.24 268.04 347.24C270.18 346.4 271.23 344.04 272.04 341.9C273.953 337.04 275.857 332.18 277.75 327.32C280.822 327.515 283.906 327.385 286.95 326.93C296.419 325.472 305.161 320.989 311.87 314.15C313.44 312.55 314.94 310.69 315.22 308.46C315.66 305.29 313.47 302.43 311.41 300Z"
        fill="#3C55AC" />
    <path
        d="M270.91 343.53C270.195 343.514 269.486 343.403 268.8 343.2C267.123 342.816 265.481 342.294 263.89 341.64C262.29 340.984 260.773 340.142 259.37 339.13C258.764 338.745 258.23 338.258 257.79 337.69C259.789 339.022 261.896 340.183 264.09 341.16C267.77 342.67 271 343.36 270.91 343.53Z"
        fill="white" />
    <path
        d="M274.05 337.07C273.282 337.06 272.519 336.949 271.78 336.74C268.178 335.963 264.674 334.789 261.33 333.24C260.619 332.961 259.947 332.591 259.33 332.14C260.074 332.32 260.798 332.574 261.49 332.9C262.79 333.41 264.61 334.1 266.64 334.78C268.67 335.46 270.53 336 271.88 336.38C272.625 336.537 273.352 336.768 274.05 337.07Z"
        fill="white" />
    <path
        d="M276.09 331.09C275.3 331.121 274.509 331.044 273.74 330.86C270.001 330.166 266.367 328.989 262.93 327.36C262.214 327.053 261.542 326.653 260.93 326.17C261.684 326.388 262.417 326.672 263.12 327.02C264.46 327.58 266.33 328.28 268.42 328.96C270.51 329.64 272.42 330.16 273.85 330.5C274.612 330.635 275.361 330.832 276.09 331.09Z"
        fill="white" />
    <path
        d="M261.55 322.09C261.422 321.885 261.334 321.658 261.29 321.42C261.096 320.793 260.952 320.151 260.86 319.5C260.547 317.342 260.611 315.146 261.05 313.01C261.485 310.886 262.29 308.855 263.43 307.01C263.767 306.447 264.148 305.912 264.57 305.41C264.87 305.05 265.05 304.87 265.08 304.89C265.11 304.91 264.53 305.76 263.74 307.19C262.72 309.071 261.985 311.093 261.56 313.19C261.135 315.272 261.023 317.406 261.23 319.52C261.39 321.08 261.64 322.07 261.55 322.09Z"
        fill="white" />
    <path
        d="M272.91 324.72C272.769 324.502 272.665 324.262 272.6 324.011C272.376 323.356 272.193 322.688 272.05 322.011C271.061 317.443 271.39 312.688 273 308.3C273.231 307.638 273.508 306.993 273.83 306.37C274.05 305.92 274.19 305.691 274.23 305.701C274.27 305.711 273.87 306.7 273.35 308.41C271.971 312.776 271.652 317.407 272.42 321.921C272.7 323.641 273 324.69 272.91 324.72Z"
        fill="white" />
    <path
        d="M284.15 325.9C283.718 324.941 283.399 323.934 283.2 322.9C281.969 317.95 281.477 312.845 281.74 307.75C281.745 306.694 281.865 305.641 282.1 304.61C282.161 305.659 282.161 306.711 282.1 307.76C282.077 310.288 282.184 312.814 282.42 315.33C282.67 317.845 283.047 320.344 283.55 322.82C283.805 323.836 284.006 324.864 284.15 325.9Z"
        fill="white" />
    <path
        d="M297.23 322C296.774 321.104 296.396 320.171 296.1 319.21C295.39 317.33 294.52 315 293.56 312.43C292.6 309.86 291.64 307.57 290.91 305.69C290.498 304.78 290.163 303.837 289.91 302.87C290.446 303.721 290.905 304.618 291.28 305.55C292.05 307.24 293.05 309.6 294.07 312.25C295.09 314.9 295.92 317.32 296.48 319.09C296.811 320.037 297.062 321.011 297.23 322Z"
        fill="white" />
    <path
        d="M307.49 318.14C307.41 318.14 307.14 316.96 306.57 315.08C305.834 312.629 304.907 310.238 303.8 307.93C302.675 305.632 301.378 303.422 299.92 301.32C299.265 300.479 298.654 299.605 298.09 298.7C298.09 298.7 298.34 298.89 298.71 299.3C299.08 299.71 299.61 300.3 300.21 301.1C303.359 305.237 305.644 309.963 306.93 315C307.17 316 307.33 316.75 307.41 317.3C307.485 317.573 307.512 317.858 307.49 318.14Z"
        fill="white" />
    <path
        d="M283.51 327C283.186 327.106 282.85 327.173 282.51 327.2C281.88 327.3 280.95 327.39 279.81 327.45C276.815 327.584 273.814 327.366 270.87 326.8C267.925 326.229 265.058 325.309 262.33 324.06C261.506 323.688 260.702 323.274 259.92 322.82C259.37 322.49 259.07 322.3 259.09 322.26C259.11 322.22 260.38 322.85 262.48 323.73C265.22 324.857 268.064 325.714 270.97 326.29C273.88 326.843 276.838 327.108 279.8 327.08C282.09 327 283.5 326.87 283.51 327Z"
        fill="#263238" />
    <path
        d="M430.24 168.84C430.69 170.14 429.1 171.84 427.81 172.31C427.351 172.487 426.855 172.549 426.366 172.489C425.877 172.43 425.411 172.251 425.007 171.968C424.604 171.685 424.277 171.308 424.054 170.869C423.831 170.429 423.72 169.942 423.73 169.45C423.73 168.08 425.66 164.81 426.95 164.37C428.24 163.93 429.79 167.54 430.24 168.84Z"
        fill="#B95E38" />
    <path opacity="0.2"
        d="M430.24 168.84C430.69 170.14 429.1 171.84 427.81 172.31C427.351 172.487 426.855 172.549 426.366 172.489C425.877 172.43 425.411 172.251 425.007 171.968C424.604 171.685 424.277 171.308 424.054 170.869C423.831 170.429 423.72 169.942 423.73 169.45C423.73 168.08 425.66 164.81 426.95 164.37C428.24 163.93 429.79 167.54 430.24 168.84Z"
        fill="black" />
    <path
        d="M377.06 115.2C372.51 120.89 375.57 124.59 381.84 127.1C381.19 125.26 381.68 123.1 383.74 120.52C394.62 106.94 425.74 93.7199 408.79 74.3999C407.213 72.5662 405.231 71.1248 403 70.1899C417.84 88.9099 387.73 101.89 377.06 115.2Z"
        fill="#B95E38" />
    <path
        d="M297.6 162.36C286.8 166.83 275.52 169.65 267.51 166.36C274.77 176.6 289.94 173.56 304.28 167.64C311.62 164.64 316.48 162.41 319.94 162.29C316.41 153.94 311.4 156.65 297.6 162.36Z"
        fill="#B95E38" />
    <path
        d="M404.64 177.66C395.19 175.29 386.59 171.53 382.76 170.03C373.34 166.35 368.16 162.51 369 175.13C369.84 187.75 380.76 233.28 343.29 232.44C340.071 232.436 336.884 231.801 333.91 230.57C337.04 234.85 342.06 237.57 349.97 237.75C387.44 238.6 376.52 193.06 375.68 180.44C374.84 167.82 380.02 171.66 389.44 175.35C392.14 176.41 397.23 178.59 403.31 180.62C403.61 179.692 403.998 178.794 404.47 177.94C404.52 177.84 404.59 177.76 404.64 177.66Z"
        fill="#B95E38" />
    <path
        d="M348.46 86.6302C348.46 86.6302 351.46 83.6302 356.23 79.7602C355.77 71.1802 352.74 66.1502 352.74 66.1502C349.54 58.9202 345.06 54.2602 340.03 51.4302C342.53 54.2187 344.557 57.3973 346.03 60.8402C346.03 60.8402 352.11 70.7802 348.46 86.6302Z"
        fill="#B95E38" />
    <path opacity="0.2"
        d="M377.06 115.2C372.51 120.89 375.57 124.59 381.84 127.1C381.19 125.26 381.68 123.1 383.74 120.52C394.62 106.94 425.74 93.7199 408.79 74.3999C407.213 72.5662 405.231 71.1248 403 70.1899C417.84 88.9099 387.73 101.89 377.06 115.2Z"
        fill="black" />
    <path opacity="0.2"
        d="M297.6 162.36C286.8 166.83 275.52 169.65 267.51 166.36C274.77 176.6 289.94 173.56 304.28 167.64C311.62 164.64 316.48 162.41 319.94 162.29C316.41 153.94 311.4 156.65 297.6 162.36Z"
        fill="black" />
    <path opacity="0.2"
        d="M404.64 177.66C395.19 175.29 386.59 171.53 382.76 170.03C373.34 166.35 368.16 162.51 369 175.13C369.84 187.75 380.76 233.28 343.29 232.44C340.071 232.436 336.884 231.801 333.91 230.57C337.04 234.85 342.06 237.57 349.97 237.75C387.44 238.6 376.52 193.06 375.68 180.44C374.84 167.82 380.02 171.66 389.44 175.35C392.14 176.41 397.23 178.59 403.31 180.62C403.61 179.692 403.998 178.794 404.47 177.94C404.52 177.84 404.59 177.76 404.64 177.66Z"
        fill="black" />
    <path opacity="0.2"
        d="M348.46 86.6302C348.46 86.6302 351.46 83.6302 356.23 79.7602C355.77 71.1802 352.74 66.1502 352.74 66.1502C349.54 58.9202 345.06 54.2602 340.03 51.4302C342.53 54.2187 344.557 57.3973 346.03 60.8402C346.03 60.8402 352.11 70.7802 348.46 86.6302Z"
        fill="black" />
    <path
        d="M369 175.13C368.16 162.51 373.34 166.35 382.76 170.03C386.59 171.53 395.19 175.29 404.64 177.66C405.348 176.462 406.254 175.394 407.32 174.5C401.54 173.33 395.84 171.11 390.52 169.22C385.7 167.51 380.9 165.7 376.02 164.15C373.6 163.38 368.61 161.07 366.47 163.15C363.63 165.93 363.72 172.76 363.57 176.33C363.36 181.406 363.54 186.491 364.11 191.54C364.6 195.88 365.55 199.89 365.06 204.29C364.486 209.886 362.624 215.274 359.62 220.03C354.49 227.96 345.11 230.93 337.06 225.15C329.18 219.5 326.9 210.32 326.22 201.22C325.49 191.32 325.83 181.37 326.05 171.46C326.25 162.81 325.73 151.07 314.45 149.93C309.01 149.39 303.53 152.17 298.74 154.42C294.2 156.55 289.74 158.86 285.12 160.81C277.85 163.88 268.76 166.01 264.31 157.37C259.86 148.73 266.07 139.56 272.91 134.59C280.91 128.77 290.14 125.32 299.07 121.26L310.93 115.67C306.599 113.845 302.484 111.544 298.66 108.81C291.29 103.67 284.66 97.6001 282.29 88.6401C276.79 67.5101 294.7 45.1501 316.78 46.9101C338.12 48.6201 345.57 70.1001 345.95 89.0701C346.061 89.1772 346.149 89.3063 346.208 89.4493C346.266 89.5922 346.294 89.7457 346.29 89.9001C346.268 90.8069 346.194 91.7116 346.07 92.6101C346.36 92.7601 346.66 92.9101 346.94 93.0701C348.413 92.0235 349.873 90.9601 351.32 89.8801C360.03 83.4501 367.85 75.0501 377.81 70.5601C384.86 67.3801 396.02 64.7301 400.59 73.2001C404.89 81.2001 396.97 90.3401 391.59 95.5101C385.36 101.51 377.59 105.7 372.22 112.62C369.35 116.31 366.91 121.3 369.72 125.72C372.53 130.14 378.43 132.34 383.18 133.78C388.458 135.347 393.895 136.313 399.39 136.66C399.254 134.783 399.503 132.898 400.12 131.12C393.46 130.25 386.69 129.02 381.84 127.12C375.57 124.61 372.51 120.91 377.06 115.22C387.73 101.91 417.84 88.9301 403.01 70.2201C402.72 69.8501 402.44 69.4801 402.11 69.1101C390.16 55.4901 367.99 70.2101 356.23 79.7901C351.5 83.6401 348.46 86.6601 348.46 86.6601C352.11 70.8101 346.06 60.8701 346.06 60.8701C344.37 57.0501 342.69 53.5601 340.06 51.4601C325.06 39.5901 306.8 42.4601 297.16 48.1701C286.78 54.3101 273.24 66.9101 279.16 89.7701C281.262 98.4523 286.726 105.944 294.35 110.6C299.35 113.67 302.16 115.34 302.16 115.34C302.16 115.34 302.78 114.95 301.16 116.01C296.966 118.629 292.603 120.967 288.1 123.01C275.51 129.01 253.27 134.08 257.35 152.78C258.97 160.22 262.63 164.43 267.49 166.4C275.49 169.65 286.78 166.83 297.58 162.4C311.38 156.69 316.39 153.98 319.92 162.4C321.023 165.252 321.879 168.192 322.48 171.19C326.09 187.43 314.62 222.19 333.89 230.64C336.864 231.87 340.051 232.506 343.27 232.51C380.76 233.28 369.84 187.74 369 175.13Z"
        fill="#B95E38" />
    <path
        d="M348.9 110.73C352.45 105.73 350.98 99.73 346.68 96.25C346.18 96.6 345.68 96.96 345.18 97.31C345.113 97.3584 345.039 97.3955 344.96 97.42C342.789 103.604 338.518 108.831 332.89 112.19C337.67 116.41 345 116.25 348.9 110.73Z"
        fill="#B95E38" />
    <path
        d="M313.63 117.08C315.17 122.08 316.92 129.43 323.52 127.34C328.67 125.7 328.82 118.78 329.72 113.86C325.154 115.967 320.097 116.783 315.1 116.22C314.999 116.376 314.857 116.501 314.69 116.58L313.63 117.08Z"
        fill="#B95E38" />
    <path opacity="0.2"
        d="M372.09 125.23C369.28 120.81 371.72 115.81 374.59 112.13C380 105.21 387.73 101 394 95C399.38 89.82 407.31 80.67 403 72.68C398.43 64.22 387.27 66.87 380.22 70.05C370.22 74.54 362.44 82.93 353.73 89.37C352.28 90.44 350.82 91.51 349.35 92.56C350.078 93.0038 350.764 93.5126 351.4 94.08C356.6 90.35 361.72 86.48 366.63 82.39C374.08 76.19 383.28 68.39 393.76 69.45C399.37 69.99 402.9 74.8 401.33 80.34C399.94 85.27 396.14 89.49 392.57 93.01C386.96 98.55 380.01 102.48 374.65 108.36C370.18 113.26 365.97 120.42 370.25 126.77C375 133.83 385.68 136.26 393.48 137.59C395.561 138.014 397.67 138.288 399.79 138.41C399.58 137.605 399.449 136.781 399.4 135.95C394.699 135.67 390.055 134.769 385.59 133.27C380.8 131.85 374.89 129.64 372.09 125.23Z"
        fill="black" />
    <path
        d="M369.72 125.74C366.91 121.32 369.35 116.33 372.22 112.64C377.63 105.72 385.36 101.53 391.59 95.53C396.97 90.36 404.89 81.21 400.59 73.22C396.02 64.75 384.86 67.4 377.81 70.58C367.81 75.07 360.03 83.47 351.32 89.9C349.867 90.98 348.407 92.0433 346.94 93.09C347.671 93.5333 348.361 94.0421 349 94.61C354.2 90.88 359.31 87.02 364.23 82.93C371.68 76.73 380.87 68.93 391.35 69.93C396.97 70.48 400.5 75.29 398.93 80.82C397.54 85.75 393.74 89.97 390.17 93.5C384.56 99.03 377.61 102.97 372.25 108.84C367.78 113.75 363.57 120.9 367.85 127.25C372.6 134.31 383.28 136.75 391.08 138.07C393.97 138.559 396.884 138.893 399.81 139.07C399.598 138.268 399.461 137.448 399.4 136.62C393.905 136.273 388.468 135.307 383.19 133.74C378.43 132.36 372.52 130.15 369.72 125.74Z"
        fill="white" />
    <path opacity="0.3"
        d="M373.51 162.44C371.36 161.95 368.98 161.44 367.1 162.87C364.9 164.56 364.17 167.87 363.68 170.47C362.06 178.96 362.49 188.24 363.81 196.75C365.32 206.5 363.53 219.64 354.68 225.81C343.93 233.3 333.2 220.43 331.27 210.65C329.46 201.55 329.84 191.87 329.99 182.65C330.09 176.25 331.2 169.11 329.87 162.79C328.02 154.04 320.57 148.15 311.56 149.79C302.55 151.43 294.43 157.03 286.15 160.54C282.69 161.99 278.2 164.06 274.36 163.22C268.26 161.9 266.06 155.16 267.54 149.72C270.37 139.33 282.72 134.03 291.61 129.9C295.05 128.31 298.61 126.9 302.03 125.39L313.69 119.89C313.615 119.153 313.588 118.411 313.61 117.67C313.21 117.57 312.82 117.47 312.42 117.35C312.268 117.298 312.141 117.192 312.063 117.051C311.985 116.911 311.961 116.746 311.997 116.59C312.034 116.433 312.126 116.295 312.258 116.203C312.389 116.111 312.551 116.071 312.71 116.09C313.82 116.25 314.93 116.35 316.05 116.4C312.337 115.113 308.786 113.399 305.47 111.29C298.6 107.14 291.18 101.72 287.81 94.2002C285.913 89.8853 285.091 85.175 285.413 80.4726C285.735 75.7703 287.193 71.2161 289.66 67.2002C295.29 58.2002 304.24 51.4802 315.19 51.2602C329.68 50.9602 338.81 60.3702 342.58 73.6402C344.34 79.9193 345.235 86.4092 345.24 92.9302C345.32 92.5202 345.41 92.1002 345.48 91.6802C345.538 91.4571 345.654 91.2533 345.817 91.0899C345.979 90.9264 346.183 90.8092 346.406 90.7502C346.628 90.6911 346.863 90.6924 347.085 90.754C347.307 90.8155 347.509 90.935 347.67 91.1002C347.29 72.1002 339.84 50.6502 318.5 48.9502C296.42 47.1802 278.5 69.5402 284.01 90.6702C286.34 99.6702 293.01 105.67 300.38 110.84C304.201 113.578 308.317 115.879 312.65 117.7L300.78 123.29C291.85 127.35 282.63 130.8 274.63 136.62C267.79 141.62 261.63 150.83 266.02 159.4C270.41 167.97 279.56 165.91 286.84 162.84C291.46 160.84 295.91 158.58 300.46 156.45C305.25 154.21 310.72 151.45 316.17 151.97C327.44 153.1 327.96 164.84 327.77 173.49C327.55 183.4 327.2 193.36 327.94 203.25C328.62 212.35 330.94 221.53 338.78 227.19C346.83 232.96 356.21 229.99 361.34 222.07C364.346 217.311 366.208 211.92 366.78 206.32C367.27 201.92 366.31 197.91 365.83 193.58C365.26 188.528 365.08 183.44 365.29 178.36C365.44 174.79 365.35 167.96 368.19 165.18C370.33 163.09 375.32 165.39 377.74 166.18C382.62 167.73 387.41 169.55 392.24 171.26C397.56 173.14 400.24 174.65 406 175.82C407 174.96 407.23 174.11 408.47 173.69C404.03 173.04 403.62 172.55 399.81 171.31C391.07 168.42 382.49 164.48 373.51 162.44Z"
        fill="black" />
    <path
        d="M371.81 160.44C369.66 159.95 367.27 159.44 365.39 160.86C363.2 162.56 362.46 165.86 361.97 168.46C360.36 176.96 360.78 186.24 362.1 194.75C363.62 204.5 361.82 217.64 352.97 223.8C342.22 231.29 331.5 218.43 329.56 208.65C327.76 199.54 328.14 189.87 328.28 180.65C328.38 174.26 329.49 167.12 328.16 160.8C326.32 152.05 318.87 146.15 309.85 147.8C300.83 149.45 292.73 155 284.44 158.5C280.99 159.96 276.49 162.03 272.65 161.19C266.55 159.86 264.35 153.13 265.83 147.69C268.66 137.3 281 132 289.9 127.87C293.34 126.28 296.9 124.87 300.32 123.36L311.99 117.86C311.911 117.12 311.881 116.375 311.9 115.63C311.51 115.53 311.11 115.43 310.71 115.31C310.544 115.27 310.401 115.166 310.312 115.021C310.223 114.876 310.195 114.701 310.235 114.535C310.275 114.369 310.379 114.226 310.524 114.137C310.669 114.048 310.844 114.02 311.01 114.06C312.11 114.22 313.23 114.32 314.35 114.37C310.637 113.087 307.086 111.375 303.77 109.27C296.91 105.12 289.48 99.7001 286.11 92.1801C284.216 87.8646 283.395 83.1546 283.717 78.4527C284.039 73.7509 285.495 69.1969 287.96 65.1801C293.59 56.1801 302.54 49.4701 313.49 49.2501C327.98 48.9501 337.11 58.3501 340.89 71.6201C342.641 77.9042 343.533 84.3966 343.54 90.9201C343.63 90.5101 343.71 90.0901 343.78 89.6701C343.838 89.4469 343.954 89.2432 344.117 89.0798C344.279 88.9163 344.483 88.7991 344.705 88.74C344.928 88.681 345.163 88.6823 345.385 88.7438C345.607 88.8054 345.809 88.9249 345.97 89.0901C345.59 70.0901 338.14 48.6401 316.8 46.9301C294.72 45.1701 276.8 67.5301 282.31 88.6601C284.65 97.6601 291.31 103.66 298.68 108.83C302.504 111.564 306.619 113.865 310.95 115.69L299.09 121.28C290.16 125.34 280.93 128.79 272.93 134.61C266.09 139.61 259.93 148.82 264.33 157.39C268.73 165.96 277.87 163.9 285.14 160.83C289.76 158.83 294.22 156.57 298.76 154.44C303.55 152.19 309.03 149.44 314.47 149.95C325.75 151.09 326.27 162.83 326.07 171.48C325.85 181.39 325.51 191.34 326.24 201.24C326.92 210.34 329.24 219.52 337.08 225.17C345.13 230.95 354.51 227.98 359.64 220.05C362.644 215.294 364.506 209.906 365.08 204.31C365.57 199.91 364.62 195.9 364.13 191.56C363.56 186.511 363.38 181.426 363.59 176.35C363.74 172.78 363.65 165.95 366.49 163.17C368.63 161.07 373.62 163.38 376.04 164.17C380.92 165.72 385.72 167.53 390.54 169.24C395.86 171.13 401.54 173.35 407.34 174.52C408.357 173.658 409.527 172.997 410.79 172.57C406.482 171.837 402.243 170.739 398.12 169.29C389.36 166.42 380.79 162.48 371.81 160.44Z"
        fill="white" />
    <path
        d="M343.76 89.6703C343.69 90.0903 343.61 90.5103 343.52 90.9203C342.01 98.3403 338.92 104.92 332.52 109.44C327.186 113.04 320.812 114.773 314.39 114.37C313.27 114.32 312.15 114.22 311.05 114.06C310.884 114.02 310.709 114.048 310.564 114.137C310.419 114.226 310.315 114.369 310.275 114.535C310.235 114.701 310.263 114.876 310.352 115.021C310.441 115.166 310.584 115.27 310.75 115.31C311.15 115.43 311.55 115.53 311.94 115.63V115.57C311.939 115.427 311.99 115.289 312.082 115.18C312.174 115.071 312.303 114.998 312.444 114.975C312.585 114.952 312.729 114.981 312.852 115.055C312.974 115.129 313.065 115.244 313.11 115.38L313.3 115.93C313.91 116.05 314.52 116.15 315.14 116.22C320.137 116.783 325.194 115.967 329.76 113.86C329.858 113.26 329.988 112.666 330.15 112.08C330.204 111.878 330.308 111.692 330.453 111.542C330.598 111.391 330.78 111.28 330.98 111.219C331.18 111.157 331.393 111.149 331.598 111.193C331.802 111.237 331.993 111.332 332.15 111.47C332.39 111.724 332.64 111.964 332.9 112.19C338.539 108.837 342.822 103.609 345 97.4203C345.22 96.7603 345.41 96.0903 345.58 95.4203C345.17 95.1464 344.742 94.8993 344.3 94.6803C342.75 93.9203 344 91.6802 345.54 92.3402C345.74 92.4302 345.92 92.5402 346.11 92.6302C346.234 91.7318 346.308 90.827 346.33 89.9203C346.334 89.7659 346.306 89.6123 346.248 89.4694C346.189 89.3265 346.101 89.1973 345.99 89.0902C345.831 88.9143 345.626 88.7853 345.398 88.7174C345.171 88.6495 344.929 88.6452 344.699 88.7049C344.47 88.7647 344.26 88.8863 344.095 89.0565C343.929 89.2266 343.813 89.4389 343.76 89.6703Z"
        fill="white" />
    <path
        d="M345.5 92.3403C343.96 91.6503 342.71 93.9203 344.26 94.6803C344.702 94.8993 345.13 95.1465 345.54 95.4203C345.938 95.6708 346.319 95.9481 346.68 96.2503C350.98 99.7503 352.45 105.75 348.9 110.73C344.98 116.25 337.67 116.41 332.9 112.19C332.64 111.964 332.39 111.724 332.15 111.47C331.993 111.332 331.803 111.237 331.598 111.193C331.393 111.149 331.181 111.157 330.98 111.219C330.78 111.28 330.599 111.391 330.453 111.542C330.308 111.692 330.204 111.878 330.15 112.08C329.988 112.666 329.858 113.26 329.76 113.86C328.86 118.78 328.71 125.7 323.56 127.34C316.96 129.43 315.21 122.07 313.67 117.08C313.55 116.68 313.42 116.3 313.3 115.93L313.11 115.38C313.065 115.245 312.974 115.129 312.852 115.055C312.73 114.981 312.585 114.952 312.444 114.975C312.303 114.998 312.175 115.071 312.082 115.18C311.99 115.289 311.939 115.427 311.94 115.57V115.63C311.921 116.375 311.951 117.12 312.03 117.86C312.62 123.5 316.03 130.23 322.29 130.02C330.01 129.75 330.78 120.76 332.05 114.64C334.716 116.776 338.11 117.788 341.51 117.462C344.91 117.136 348.05 115.498 350.262 112.896C352.475 110.293 353.585 106.931 353.359 103.522C353.133 100.114 351.587 96.9276 349.05 94.6403C348.414 94.0729 347.728 93.5641 347 93.1203C346.72 92.9603 346.42 92.8103 346.13 92.6603C345.84 92.5103 345.7 92.4303 345.5 92.3403Z"
        fill="white" />
    <path
        d="M340.87 71.62C337.09 58.35 328 49 313.47 49.25C302.47 49.47 293.57 56.17 287.94 65.18C285.475 69.1968 284.019 73.7508 283.697 78.4527C283.375 83.1545 284.196 87.8645 286.09 92.18C289.46 99.7 296.89 105.12 303.75 109.27C307.066 111.375 310.617 113.087 314.33 114.37C320.752 114.773 327.126 113.039 332.46 109.44C338.9 104.91 341.99 98.34 343.46 90.92C343.472 84.3992 342.601 77.9069 340.87 71.62ZM303.43 89.93C302.868 90.1171 302.263 90.1336 301.692 89.9777C301.121 89.8217 300.609 89.5002 300.22 89.0535C299.831 88.6069 299.583 88.0552 299.507 87.4679C299.431 86.8806 299.531 86.284 299.793 85.7532C300.056 85.2225 300.47 84.7813 300.983 84.4853C301.496 84.1893 302.085 84.0517 302.676 84.0898C303.267 84.128 303.833 84.3402 304.304 84.6997C304.774 85.0592 305.128 85.5499 305.32 86.11C305.449 86.4848 305.502 86.8814 305.476 87.2769C305.451 87.6723 305.347 88.0588 305.171 88.414C304.995 88.7692 304.751 89.086 304.452 89.3462C304.153 89.6064 303.806 89.8048 303.43 89.93ZM324.73 74.12C324.168 74.3071 323.563 74.3237 322.992 74.1677C322.421 74.0117 321.909 73.6902 321.52 73.2435C321.131 72.7969 320.883 72.2452 320.807 71.6579C320.731 71.0706 320.831 70.474 321.093 69.9432C321.356 69.4125 321.77 68.9713 322.283 68.6753C322.796 68.3793 323.385 68.2417 323.976 68.2798C324.567 68.318 325.133 68.5302 325.604 68.8897C326.074 69.2492 326.428 69.7399 326.62 70.3C326.749 70.6748 326.802 71.0714 326.776 71.4669C326.751 71.8623 326.647 72.2488 326.471 72.604C326.295 72.9592 326.051 73.276 325.752 73.5362C325.453 73.7964 325.106 73.9948 324.73 74.12Z"
        fill="#B95E38" />
    <path
        d="M416.46 150C410.23 150.29 403.71 147.21 400.8 141.69C400.372 140.863 400.036 139.991 399.8 139.09C396.874 138.913 393.96 138.579 391.07 138.09C383.27 136.77 372.59 134.33 367.84 127.27C363.56 120.92 367.77 113.77 372.24 108.86C377.6 102.99 384.55 99.05 390.16 93.52C393.73 89.99 397.53 85.77 398.92 80.84C400.49 75.31 396.92 70.5 391.34 69.95C380.86 68.95 371.67 76.7 364.22 82.95C359.3 87.04 354.22 90.9 348.99 94.63C351.527 96.9174 353.073 100.103 353.299 103.512C353.525 106.92 352.415 110.283 350.202 112.885C347.99 115.488 344.85 117.126 341.45 117.452C338.05 117.778 334.656 116.765 331.99 114.63C330.72 120.75 329.99 129.74 322.23 130.01C315.96 130.22 312.56 123.49 311.97 117.85L300.3 123.35C296.85 124.91 293.3 126.27 289.88 127.86C280.99 131.99 268.64 137.29 265.81 147.68C264.33 153.12 266.53 159.85 272.63 161.18C276.47 162.02 280.97 159.95 284.42 158.49C292.71 154.99 300.86 149.34 309.83 147.74C318.8 146.14 326.3 152.03 328.14 160.74C329.47 167.06 328.36 174.2 328.26 180.59C328.12 189.82 327.74 199.49 329.54 208.59C331.48 218.37 342.2 231.23 352.95 223.74C361.8 217.58 363.6 204.44 362.08 194.69C360.76 186.18 360.33 176.9 361.95 168.4C362.44 165.85 363.18 162.5 365.37 160.8C367.25 159.35 369.64 159.89 371.79 160.38C380.79 162.38 389.34 166.38 398.08 169.21C402.203 170.659 406.442 171.757 410.75 172.49C411.989 172.049 413.316 171.909 414.62 172.08C408.69 166.2 409.61 154.92 416.46 150ZM349.84 138C349.314 138.677 348.657 139.242 347.908 139.66C347.16 140.079 346.334 140.343 345.482 140.436C344.629 140.529 343.767 140.45 342.945 140.204C342.124 139.957 341.36 139.548 340.7 139C338.18 136.68 337.4 133.13 339.5 130.27L339.55 130.21C340.6 129.064 342.01 128.311 343.546 128.074C345.083 127.838 346.654 128.133 348 128.91C349.432 129.886 350.426 131.382 350.77 133.081C351.114 134.779 350.78 136.544 349.84 138Z"
        fill="#B95E38" />
    <path
        d="M426.26 135.73C426.26 135.73 424.1 140.73 424.84 142.89C425.58 145.05 432.91 143.83 432.91 143.83C432.91 143.83 435.11 136 426.26 135.73Z"
        fill="#B95E38" />
    <g opacity="0.2">
        <path opacity="0.2"
            d="M426.26 135.73C426.26 135.73 424.1 140.73 424.84 142.89C425.58 145.05 432.91 143.83 432.91 143.83C432.91 143.83 435.11 136 426.26 135.73Z"
            fill="black" />
    </g>
    <path
        d="M428.55 135C427.17 134.31 425.55 135.55 425.19 137.06C424.79 138.9 424.19 140.94 425.34 141.59C427.34 142.71 432.05 142.14 432.05 142.14C432.05 142.14 434.85 138.19 428.55 135Z"
        fill="#B95E38" />
    <path
        d="M429.52 167.74C429.97 169.04 428.39 170.74 427.09 171.21C426.781 171.317 426.455 171.362 426.129 171.343C425.803 171.323 425.484 171.24 425.19 171.097C424.896 170.954 424.634 170.754 424.418 170.509C424.201 170.264 424.036 169.979 423.93 169.67C423.48 168.38 425.2 164.85 426.49 164.41C427.78 163.97 429.08 166.45 429.52 167.74Z"
        fill="#B95E38" />
    <g opacity="0.2">
        <path opacity="0.2"
            d="M357.53 100.07C356.381 99.4566 355.338 98.6632 354.44 97.72C352.69 95.43 353.57 91.72 351.5 89.72C350.749 89.1069 349.831 88.7326 348.865 88.6452C347.899 88.5579 346.929 88.7616 346.08 89.23C343.978 90.3031 342.114 91.7895 340.6 93.6C337.051 98.3829 334.407 103.775 332.8 109.51C326.5 108.24 319.59 108.91 313.71 110.22C311.452 110.905 309.356 112.042 307.55 113.56C306.786 114.158 306.219 114.971 305.924 115.895C305.628 116.818 305.616 117.81 305.89 118.74C306.89 121.43 310.67 122.06 312.09 124.57C312.628 125.76 312.965 127.03 313.09 128.33C313.703 131.452 315.404 134.255 317.89 136.24C319.96 137.87 322.74 138.88 325.27 138.14C328.27 137.28 330.08 134.34 331.62 131.64C333.618 128.439 335.236 125.016 336.44 121.44C336.803 120.196 337.048 118.92 337.17 117.63C338.76 118.249 340.424 118.659 342.12 118.85C345.884 119.143 349.67 118.996 353.4 118.41C356.49 118.04 359.9 117.51 361.86 115.1C363.53 113.1 363.69 110.1 362.99 107.56C362.125 104.491 360.187 101.833 357.53 100.07Z"
            fill="black" />
    </g>
    <path
        d="M355.94 98.7202C354.787 98.1134 353.743 97.3193 352.85 96.3702C351.09 94.0902 351.97 90.3702 349.91 88.3702C349.161 87.753 348.243 87.3753 347.277 87.2861C346.31 87.1969 345.339 87.4004 344.49 87.8702C342.387 88.9556 340.521 90.4478 339 92.2602C335.457 97.0503 332.814 102.445 331.2 108.18C324.91 106.9 318 107.57 312.12 108.88C309.86 109.573 307.762 110.712 305.95 112.23C305.185 112.827 304.618 113.64 304.321 114.564C304.025 115.488 304.014 116.48 304.29 117.41C305.29 120.09 309.08 120.73 310.5 123.23C311.019 124.427 311.34 125.7 311.45 127C312.06 130.12 313.762 132.921 316.25 134.9C318.32 136.54 321.09 137.55 323.62 136.81C326.62 135.94 328.44 133.01 329.98 130.31C331.975 127.105 333.589 123.679 334.79 120.1C335.153 118.856 335.398 117.58 335.52 116.29C337.126 116.916 338.807 117.33 340.52 117.52C344.281 117.815 348.064 117.664 351.79 117.07C354.88 116.71 358.29 116.18 360.26 113.76C361.93 111.76 362.08 108.76 361.39 106.23C360.526 103.158 358.593 100.495 355.94 98.7202Z"
        fill="#3C55AC" />
    <path
        d="M331 107.85C331 107.85 331.08 107.79 331.26 107.71C331.517 107.607 331.786 107.537 332.06 107.5C332.94 107.393 333.832 107.522 334.646 107.874C335.459 108.225 336.165 108.787 336.69 109.5C337.186 110.184 337.471 110.997 337.51 111.84C337.593 112.801 337.386 113.764 336.915 114.606C336.444 115.447 335.731 116.127 334.869 116.559C334.007 116.99 333.035 117.152 332.079 117.024C331.123 116.896 330.228 116.483 329.51 115.84C328.857 115.302 328.375 114.587 328.12 113.78C327.916 113.086 327.865 112.356 327.97 111.64C328.113 110.605 328.587 109.644 329.32 108.9C329.511 108.698 329.73 108.523 329.97 108.38C330.14 108.29 330.22 108.25 330.23 108.26C330.24 108.27 329.92 108.51 329.47 109.04C328.839 109.788 328.446 110.708 328.34 111.68C328.242 112.385 328.326 113.103 328.583 113.766C328.84 114.429 329.263 115.016 329.81 115.47C330.463 116.052 331.276 116.425 332.144 116.539C333.011 116.654 333.893 116.505 334.675 116.113C335.457 115.721 336.103 115.103 336.53 114.34C336.957 113.576 337.145 112.702 337.07 111.83C337.031 111.121 336.813 110.433 336.435 109.831C336.057 109.229 335.532 108.734 334.91 108.39C334.064 107.894 333.09 107.657 332.11 107.71C331.34 107.75 331 107.9 331 107.85Z"
        fill="white" />
    <path
        d="M329.66 115.18C329.72 115.34 326.79 116.4 323.66 118.57C320.53 120.74 318.48 123.07 318.36 122.96C318.686 122.356 319.112 121.812 319.62 121.35C320.749 120.151 322.003 119.075 323.36 118.14C324.721 117.208 326.175 116.42 327.7 115.79C328.316 115.483 328.978 115.277 329.66 115.18Z"
        fill="white" />
    <path
        d="M327.88 114.52C326.775 114.902 325.646 115.21 324.5 115.44C323.397 115.837 322.272 116.171 321.13 116.44C323.123 115.108 325.485 114.44 327.88 114.53V114.52Z"
        fill="white" />
    <path
        d="M344.05 99.6499C342.408 100.901 340.894 102.311 339.53 103.86C338.301 105.515 337.248 107.295 336.39 109.17C336.431 108.548 336.594 107.939 336.87 107.38C337.424 105.99 338.186 104.691 339.13 103.53C340.068 102.373 341.174 101.361 342.41 100.53C342.899 100.139 343.454 99.841 344.05 99.6499Z"
        fill="white" />
    <path
        d="M346.62 107.1C346.62 107.26 344.32 107.64 341.55 108.44C338.78 109.24 336.6 110.13 336.55 109.99C339.634 108.233 343.094 107.242 346.64 107.1H346.62Z"
        fill="white" />
    <path opacity="0.2"
        d="M350 130.75C348.639 129.98 347.058 129.695 345.514 129.94C343.97 130.185 342.555 130.947 341.5 132.1C339.4 134.97 340.18 138.52 342.7 140.84C343.36 141.387 344.124 141.797 344.945 142.043C345.767 142.29 346.629 142.369 347.482 142.276C348.334 142.183 349.16 141.919 349.908 141.5C350.657 141.082 351.314 140.517 351.84 139.84C352.783 138.385 353.118 136.619 352.774 134.92C352.43 133.221 351.434 131.724 350 130.75Z"
        fill="black" />
    <path opacity="0.2"
        d="M360.07 147.73C358.709 146.96 357.126 146.675 355.582 146.922C354.037 147.169 352.623 147.934 351.57 149.09C349.47 151.95 350.25 155.5 352.77 157.82C353.43 158.368 354.194 158.777 355.015 159.024C355.837 159.27 356.699 159.349 357.552 159.256C358.404 159.163 359.23 158.899 359.978 158.481C360.727 158.062 361.384 157.497 361.91 156.82C362.853 155.365 363.188 153.599 362.844 151.9C362.5 150.201 361.504 148.704 360.07 147.73Z"
        fill="black" />
    <path
        d="M348 128.85C346.641 128.075 345.058 127.787 343.513 128.032C341.968 128.277 340.552 129.042 339.5 130.2C337.4 133.06 338.18 136.61 340.7 138.93C341.36 139.478 342.124 139.887 342.945 140.134C343.767 140.38 344.629 140.459 345.482 140.366C346.334 140.273 347.16 140.009 347.908 139.591C348.657 139.172 349.314 138.607 349.84 137.93C350.779 136.476 351.113 134.712 350.769 133.015C350.425 131.319 349.431 129.824 348 128.85Z"
        fill="#3C55AC" />
    <path
        d="M358.12 145.83C356.759 145.06 355.176 144.775 353.632 145.022C352.088 145.269 350.673 146.034 349.62 147.19C347.52 150.05 348.3 153.6 350.82 155.92C351.48 156.468 352.244 156.877 353.065 157.124C353.887 157.37 354.749 157.449 355.602 157.356C356.454 157.263 357.28 156.999 358.028 156.581C358.777 156.162 359.434 155.598 359.96 154.92C360.9 153.465 361.234 151.699 360.89 150.001C360.546 148.302 359.552 146.806 358.12 145.83Z"
        fill="#3C55AC" />
    <g opacity="0.3">
        <path opacity="0.3"
            d="M321.28 78.3101C321.63 78.0801 322.6 78.9401 323.35 80.7101C323.822 81.7894 324.073 82.9522 324.09 84.1301C324.12 84.9128 323.998 85.6939 323.73 86.4301C323.382 87.4119 322.664 88.2191 321.73 88.6801C320.873 89.0833 319.917 89.2259 318.98 89.09C318.224 88.9894 317.491 88.7629 316.81 88.4201C315.74 87.9064 314.787 87.178 314.01 86.2801C312.71 84.7301 312.55 83.4501 312.9 83.2801C313.25 83.1101 314.09 83.8401 315.45 84.6801C316.218 85.1628 317.04 85.5522 317.9 85.84C318.691 86.1712 319.573 86.2102 320.39 85.9501C320.648 85.8183 320.85 85.5983 320.96 85.3301C321.135 84.9166 321.243 84.4777 321.28 84.0301C321.385 83.1164 321.385 82.1937 321.28 81.2801C321.11 79.5901 320.92 78.5401 321.28 78.3101Z"
            fill="black" />
        <path opacity="0.3"
            d="M304.11 85.3103C303.483 85.3943 302.898 85.6746 302.44 86.1109C301.981 86.5473 301.673 87.1175 301.558 87.7399C301.443 88.3622 301.528 89.0049 301.801 89.5761C302.074 90.1472 302.52 90.6175 303.076 90.9196C303.632 91.2218 304.269 91.3404 304.897 91.2584C305.525 91.1765 306.11 90.8981 306.57 90.4633C307.03 90.0284 307.34 89.4593 307.457 88.8373C307.574 88.2153 307.491 87.5723 307.22 87.0003C306.948 86.4252 306.5 85.9515 305.941 85.6477C305.382 85.344 304.741 85.2258 304.11 85.3103Z"
            fill="black" />
        <path opacity="0.3"
            d="M322.94 73.4601C323.134 74.0191 323.489 74.5083 323.96 74.8663C324.431 75.2242 324.997 75.4348 325.588 75.4717C326.178 75.5086 326.766 75.37 327.278 75.0735C327.79 74.777 328.203 74.3357 328.465 73.8051C328.727 73.2746 328.826 72.6784 328.75 72.0917C328.674 71.505 328.426 70.9539 328.037 70.5077C327.649 70.0614 327.137 69.74 326.566 69.5839C325.996 69.4278 325.392 69.4438 324.83 69.6301C324.453 69.7552 324.104 69.954 323.805 70.2149C323.505 70.4758 323.26 70.7936 323.084 71.15C322.908 71.5063 322.805 71.894 322.78 72.2906C322.756 72.6871 322.81 73.0847 322.94 73.4601Z"
            fill="black" />
    </g>
    <path
        d="M319.24 77.09C319.6 76.85 320.57 77.72 321.32 79.49C321.792 80.5694 322.043 81.7321 322.06 82.91C322.085 83.6924 321.963 84.4726 321.7 85.21C321.346 86.1886 320.63 86.994 319.7 87.46C318.839 87.8612 317.879 88.0003 316.94 87.86C316.189 87.7565 315.46 87.5337 314.78 87.2C313.709 86.6824 312.756 85.9507 311.98 85.05C310.68 83.5 310.52 82.22 310.87 82.05C311.22 81.88 312.06 82.6 313.42 83.44C314.188 83.9227 315.01 84.3121 315.87 84.6C316.656 84.9357 317.537 84.9748 318.35 84.71C318.615 84.5898 318.823 84.371 318.93 84.1C319.101 83.6815 319.209 83.2401 319.25 82.79C319.355 81.8797 319.355 80.9603 319.25 80.05C319.08 78.36 318.89 77.31 319.24 77.09Z"
        fill="white" />
    <path
        d="M302.08 84.0899C301.453 84.173 300.868 84.4522 300.409 84.8876C299.95 85.323 299.641 85.8924 299.525 86.5143C299.409 87.1362 299.493 87.7788 299.764 88.3503C300.035 88.9218 300.48 89.3929 301.035 89.6964C301.59 89.9998 302.227 90.12 302.854 90.0397C303.482 89.9595 304.068 89.683 304.529 89.2497C304.99 88.8163 305.302 88.2484 305.421 87.627C305.539 87.0057 305.459 86.3627 305.19 85.79C304.919 85.213 304.472 84.7372 303.913 84.4316C303.354 84.1259 302.712 84.0063 302.08 84.0899Z"
        fill="white" />
    <path
        d="M320.91 72.2299C321.102 72.7901 321.456 73.2808 321.926 73.6403C322.397 73.9998 322.963 74.212 323.554 74.2501C324.145 74.2883 324.734 74.1507 325.247 73.8547C325.76 73.5587 326.174 73.1175 326.436 72.5867C326.699 72.0559 326.799 71.4593 326.723 70.872C326.647 70.2847 326.399 69.733 326.01 69.2864C325.621 68.8398 325.109 68.5182 324.538 68.3623C323.966 68.2063 323.362 68.2229 322.8 68.4099C322.424 68.5351 322.076 68.7335 321.778 68.9937C321.479 69.254 321.234 69.5708 321.059 69.926C320.883 70.2812 320.779 70.6676 320.754 71.0631C320.728 71.4585 320.781 71.8551 320.91 72.2299Z"
        fill="white" />
    <path
        d="M123.22 154.74C123.22 154.74 109.3 132.46 126.22 111.37C143.14 90.2799 172.6 95.1999 185 101.23C198.6 107.84 212.6 132.99 195.66 159.4C195.66 159.4 189.99 171.46 172.53 177.99C172.53 177.99 228.59 179.67 224.05 208.43C218.52 243.43 183.14 225.18 163.3 223.36C143.46 221.54 165.24 250.36 173.81 266.68C183.08 284.34 175.81 310.8 152.16 316.08C124.53 322.23 116.94 274.76 114.51 263.43C112.08 252.1 112.51 244.73 100.96 253.51C89.41 262.29 52.82 301.51 29.96 265.13C25.41 257.91 25.12 243.46 26.8 238C32.34 220.07 63.92 218.44 75.41 206.54C90.41 191.02 85.86 189.26 68.06 177.22C50.26 165.18 36.95 147.09 50.56 126.22C62.56 107.86 86 135.04 99.67 143.29C113.34 151.54 123.22 154.74 123.22 154.74Z"
        fill="#B95E38" />
    <path opacity="0.3"
        d="M123.22 154.74C123.22 154.74 109.3 132.46 126.22 111.37C143.14 90.2799 172.6 95.1999 185 101.23C198.6 107.84 212.6 132.99 195.66 159.4C195.66 159.4 189.99 171.46 172.53 177.99C172.53 177.99 228.59 179.67 224.05 208.43C218.52 243.43 183.14 225.18 163.3 223.36C143.46 221.54 165.24 250.36 173.81 266.68C183.08 284.34 175.81 310.8 152.16 316.08C124.53 322.23 116.94 274.76 114.51 263.43C112.08 252.1 112.51 244.73 100.96 253.51C89.41 262.29 52.82 301.51 29.96 265.13C25.41 257.91 25.12 243.46 26.8 238C32.34 220.07 63.92 218.44 75.41 206.54C90.41 191.02 85.86 189.26 68.06 177.22C50.26 165.18 36.95 147.09 50.56 126.22C62.56 107.86 86 135.04 99.67 143.29C113.34 151.54 123.22 154.74 123.22 154.74Z"
        fill="black" />
    <path
        d="M118.33 142.63C118.33 142.63 110.16 122.72 127.11 101.63C144.06 80.5399 165.36 88.8599 177.78 94.8999C191.39 101.51 213.49 123.25 196.55 149.66C196.55 149.66 190.88 161.72 173.42 168.25C173.42 168.25 231.75 180.35 224.08 208.43C216.32 236.83 184.03 215.43 164.19 213.62C144.35 211.81 162.68 244.32 171.26 260.62C180.53 278.29 176.74 301.02 153.05 306.3C125.42 312.45 117.83 264.98 115.4 253.65C112.97 242.32 113.4 234.95 101.85 243.72C90.3 252.49 53.71 291.72 30.85 255.35C11.35 224.35 61.31 212.28 76.3 196.76C91.29 181.24 86.75 179.52 69 167.48C51.25 155.44 36.57 139.55 52.69 123C67.99 107.3 86.89 125.33 100.56 133.58C114.23 141.83 118.33 142.63 118.33 142.63Z"
        fill="#B95E38" />
    <path opacity="0.2"
        d="M208.49 185.19C198.03 178.68 185.38 176.51 173.9 172.34C171.34 171.4 168.78 170.44 166.24 169.46C182.34 159.73 200.86 141.87 196.48 121.78C190.06 92.3601 150.65 83.7801 131.1 105.33C123.43 113.79 122 125.2 122.1 136.22C122.067 140.799 122.476 145.37 123.32 149.87L110.73 142.21C101.66 136.52 92.98 130.3 83.01 126.21C73.64 122.34 60.16 121.27 54.18 131.42C48.6 140.9 55.89 148.33 63.35 153.42C68.58 156.97 74.14 159.99 79.51 163.32C84.63 166.49 90.77 170.08 93.28 175.84C97.76 186.13 89.03 193.62 81.34 198.49C71.73 204.58 61.99 210.49 52.88 217.31C44.59 223.53 37.17 230.59 35.47 241.31C33.77 252.03 40.65 261.31 51.67 262.23C63.75 263.23 73.97 257.78 82.67 250.09C86.9288 246.362 91.469 242.969 96.25 239.94C100.55 237.18 105.99 233.52 111.25 233C115.79 232.54 116.52 237.33 117.6 240.89C119.39 246.8 120.72 252.84 122.21 258.83C124.99 270.07 127.4 283.13 135.88 291.66C143.34 299.16 155.06 300.53 163.17 293.19C170.22 286.81 173.55 275.96 170.91 266.79C169.33 261.28 165.24 257.36 162.16 252.69C158.396 246.965 155.311 240.82 152.97 234.38C149.36 224.48 145.83 207.54 160.89 206.46C171.38 205.72 181.31 210.78 191.13 213.61C199.75 216.09 214.83 218.41 220.32 209.05C226 199.29 216.09 189.91 208.49 185.19ZM209.43 212.54C203.67 213.54 197.11 212.54 191.54 210.84C182.8 208.24 174.35 204.44 165.14 203.74C157.52 203.16 149.56 205.36 147.47 213.59C144.89 223.75 149.89 235.7 154.33 244.59C156.68 249.41 159.486 253.995 162.71 258.28C166.62 263.37 169.44 268.22 168.94 274.9C168.13 285.73 159.36 297.47 147.32 295.07C134.32 292.47 129.95 277.39 126.96 266.35C124.2 256.2 122.65 245.35 118.69 235.54C115.8 228.39 109.88 229.7 103.69 232.54C94.6401 236.861 86.3388 242.6 79.1 249.54C71.04 257.11 54.48 263.97 44.1 257.07C32.7 249.52 38.91 233.24 46.9 225.72C54.56 218.49 63.8 212.8 72.65 207.16C78.87 203.16 86.65 199.68 91.65 194.16C97.73 187.43 99.02 177.69 93.06 170.45C86.42 162.38 75.44 158.01 66.83 152.45C62.93 149.94 57.6 146.84 55.67 142.38C52.86 135.87 57.67 129.44 63.62 127.22C75.22 122.89 88.37 131.41 97.87 137.22C101.62 139.52 105.2 142.08 108.87 144.42L124.42 153.86C124.663 154.032 124.954 154.123 125.251 154.119C125.549 154.114 125.838 154.015 126.075 153.836C126.312 153.656 126.486 153.406 126.572 153.121C126.657 152.835 126.65 152.531 126.55 152.25C125.64 148.507 125.12 144.68 125 140.83C124.41 131.72 124.7 120.98 129.17 112.83C135.36 101.54 147.75 95.5001 160.29 96.0201C175.95 96.6701 190.14 106.21 193.74 122.14C196.47 134.14 189.58 145.37 181.53 153.68C175.863 159.406 169.476 164.37 162.53 168.45C162.283 168.562 162.073 168.742 161.926 168.97C161.779 169.198 161.7 169.464 161.7 169.735C161.7 170.006 161.779 170.272 161.926 170.5C162.073 170.728 162.283 170.908 162.53 171.02C171.26 174.47 180.12 177.73 189.13 180.36C199.51 183.36 212.92 187.69 218 198.36C221.36 205.32 216.54 211.37 209.43 212.54Z"
        fill="black" />
    <path
        d="M109.38 143.1C100.31 137.4 91.63 131.18 81.66 127.1C72.28 123.23 58.81 122.16 52.83 132.31C47.25 141.79 54.54 149.23 61.99 154.31C67.23 157.85 72.79 160.87 78.16 164.2C83.27 167.37 89.41 170.97 91.92 176.72C96.4 187.01 87.68 194.51 79.99 199.38C70.38 205.46 60.64 211.38 51.53 218.2C43.24 224.41 35.81 231.47 34.12 242.2C32.43 252.93 39.3 262.25 50.32 263.13C62.4 264.08 72.61 258.67 81.32 250.98C85.5802 247.245 90.1202 243.842 94.9 240.8C99.21 238.05 104.65 234.38 109.9 233.86C114.44 233.41 115.17 238.19 116.25 241.75C118.04 247.66 119.37 253.7 120.85 259.69C123.64 270.94 126.05 283.99 134.53 292.52C141.99 300.02 153.7 301.39 161.82 294.05C168.87 287.68 172.2 276.82 169.56 267.66C167.97 262.15 163.89 258.23 160.81 253.55C157.042 247.825 153.955 241.68 151.61 235.24C148 225.34 144.48 208.4 159.54 207.33C170.03 206.58 179.96 211.64 189.78 214.47C198.4 216.96 213.47 219.27 218.97 209.91C224.67 200.17 214.77 190.8 207.18 186.07C196.72 179.56 184.06 177.39 172.59 173.22C169.14 171.96 165.69 170.67 162.28 169.32C162.28 170.18 162.28 171.04 162.28 171.9C178.91 162.59 199.8 143.9 195.18 122.66C188.76 93.24 149.35 84.66 129.8 106.21C122.13 114.68 120.69 126.09 120.8 137.1C120.694 142.851 121.366 148.59 122.8 154.16L124.93 152.54L109.39 143.1C107.88 142.18 106.16 144.36 107.69 145.29L123.23 154.74C123.473 154.919 123.767 155.014 124.069 155.012C124.371 155.01 124.664 154.91 124.904 154.728C125.145 154.546 125.32 154.291 125.404 154.001C125.488 153.712 125.476 153.402 125.37 153.12C124.408 149.386 123.842 145.562 123.68 141.71C123.08 132.6 123.38 121.86 127.85 113.71C134 102.41 146.42 96.38 159 96.9C174.67 97.54 188.85 107.09 192.46 123.01C195.19 135.01 188.29 146.25 180.24 154.56C174.571 160.28 168.184 165.241 161.24 169.32C160.993 169.432 160.783 169.612 160.636 169.84C160.489 170.068 160.41 170.334 160.41 170.605C160.41 170.876 160.489 171.142 160.636 171.37C160.783 171.598 160.993 171.778 161.24 171.89C169.97 175.34 178.83 178.6 187.84 181.23C198.21 184.23 211.63 188.56 216.71 199.23C220.06 206.23 215.25 212.28 208.14 213.46C202.38 214.41 195.82 213.41 190.25 211.75C181.51 209.15 173.05 205.36 163.85 204.65C156.23 204.07 148.27 206.27 146.18 214.5C143.59 224.66 148.6 236.62 153.04 245.5C155.387 250.319 158.193 254.9 161.42 259.18C165.33 264.28 168.14 269.13 167.65 275.81C166.82 286.63 158 298.37 146 296C133 293.41 128.63 278.32 125.63 267.28C122.87 257.13 121.32 246.28 117.37 236.48C114.47 229.32 108.56 230.63 102.42 233.48C93.3722 237.804 85.0714 243.543 77.83 250.48C69.77 258.06 53.2 264.91 42.83 258.02C31.43 250.46 37.64 234.19 45.62 226.66C53.29 219.44 62.53 213.74 71.37 208.1C77.59 204.1 85.37 200.63 90.43 195.1C96.51 188.38 97.79 178.64 91.84 171.4C85.19 163.32 74.22 158.96 65.6 153.4C61.71 150.88 56.38 147.78 54.45 143.32C51.64 136.82 56.45 130.38 62.45 128.16C74.04 123.84 87.2 132.36 96.7 138.16C100.45 140.47 104.03 143.02 107.75 145.36C109.18 146.23 110.89 144.05 109.38 143.1Z"
        fill="white" />
    <path
        d="M79.18 248.77C79.18 248.91 77.64 249.07 74.96 248.41C73.3161 247.996 71.7495 247.321 70.32 246.41C68.3381 245.183 66.7543 243.408 65.76 241.3C65.1847 239.974 64.8796 238.546 64.8624 237.1C64.8453 235.654 65.1164 234.22 65.66 232.88C66.2915 231.316 67.3874 229.982 68.8 229.06C69.5736 228.535 70.447 228.176 71.3658 228.004C72.2846 227.832 73.229 227.851 74.14 228.06C75.174 228.298 76.1056 228.858 76.8 229.66C77.5013 230.509 77.9114 231.561 77.97 232.66C78.0278 233.717 77.8108 234.772 77.34 235.72C76.8614 236.657 76.1778 237.474 75.34 238.11C73.7181 239.284 71.798 239.977 69.8 240.11C67.7941 240.288 65.7743 239.997 63.9 239.26C62.0094 238.542 60.326 237.367 59 235.84C57.7323 234.352 56.8223 232.594 56.34 230.7C55.8613 228.866 55.8099 226.947 56.19 225.09C56.5436 223.202 57.5358 221.493 59 220.25C59.7514 219.639 60.6396 219.219 61.5886 219.025C62.5377 218.832 63.5195 218.871 64.45 219.14C65.3879 219.439 66.207 220.027 66.79 220.82C67.3258 221.562 67.6475 222.438 67.72 223.35C67.8107 224.186 67.7072 225.031 67.4176 225.821C67.1279 226.61 66.6599 227.321 66.05 227.9C64.9484 228.9 63.5357 229.49 62.05 229.57C60.7541 229.664 59.4571 229.401 58.3 228.81C57.3052 228.31 56.4104 227.632 55.66 226.81C54.5068 225.534 53.6316 224.032 53.09 222.4C52.23 219.78 52.18 218.28 52.32 218.24C52.46 218.2 52.93 219.64 54.03 222.01C54.6734 223.422 55.5757 224.701 56.69 225.78C57.3566 226.472 58.1667 227.01 59.0633 227.355C59.9599 227.701 60.9214 227.846 61.88 227.78C62.9202 227.674 63.8952 227.224 64.65 226.5C65.0117 226.123 65.2832 225.669 65.4443 225.172C65.6054 224.675 65.6518 224.148 65.58 223.63C65.5417 223.115 65.3483 222.623 65.0252 222.22C64.7022 221.816 64.2646 221.52 63.77 221.37C63.206 221.233 62.6175 221.231 62.0526 221.365C61.4878 221.499 60.9626 221.764 60.52 222.14C59.524 223.066 58.8659 224.298 58.65 225.64C58.3808 227.119 58.4423 228.638 58.83 230.09C59.2193 231.622 59.9661 233.039 61.009 234.226C62.052 235.414 63.3614 236.337 64.83 236.92C66.3297 237.509 67.9446 237.745 69.55 237.61C71.0633 237.516 72.5207 237.004 73.76 236.13C74.2914 235.764 74.7238 235.272 75.0186 234.698C75.3135 234.123 75.4617 233.485 75.45 232.84C75.4467 232.28 75.2527 231.739 74.9 231.304C74.5473 230.87 74.057 230.568 73.51 230.45C72.9179 230.302 72.3022 230.275 71.6993 230.369C71.0963 230.464 70.5185 230.678 70 231C68.9456 231.658 68.1157 232.62 67.62 233.76C66.6651 235.929 66.604 238.387 67.45 240.6C68.2238 242.452 69.4938 244.054 71.12 245.23C72.3894 246.154 73.7788 246.901 75.25 247.45C77.72 248.36 79.21 248.56 79.18 248.77Z"
        fill="white" />
    <path
        d="M62.81 252.82C62.66 253.11 60.98 252.7 58.58 251.3C57.1812 250.469 55.8681 249.5 54.66 248.41C51.6763 245.729 49.3087 242.433 47.72 238.75C47.0678 237.261 46.5686 235.71 46.23 234.12C45.67 231.4 45.82 229.67 46.15 229.63C46.48 229.59 47.03 231.16 47.99 233.63C48.47 234.85 49.11 236.25 49.89 237.77C50.7521 239.405 51.7209 240.982 52.79 242.49C53.8767 243.982 55.0592 245.402 56.33 246.74C57.3828 247.833 58.4909 248.871 59.65 249.85C61.63 251.49 63 252.47 62.81 252.82Z"
        fill="white" />
    <path
        d="M159.51 253C159.58 253 159.51 253.41 159.16 254C158.655 254.933 157.976 255.761 157.16 256.44C155.863 257.559 154.316 258.351 152.65 258.75C150.386 259.303 148.001 259.067 145.89 258.08C143.284 256.878 141.23 254.734 140.14 252.08C139.828 251.341 139.613 250.564 139.5 249.77C139.355 248.841 139.466 247.891 139.82 247.02C140.261 246.056 141.061 245.302 142.05 244.92C143.003 244.541 144.05 244.461 145.05 244.69C145.997 244.965 146.872 245.446 147.61 246.1C148.348 246.754 148.932 247.563 149.32 248.47C150.116 250.192 150.46 252.088 150.32 253.98C150.184 255.925 149.573 257.807 148.54 259.46C147.454 261.175 145.918 262.558 144.1 263.46C142.325 264.356 140.348 264.777 138.362 264.681C136.376 264.584 134.449 263.974 132.77 262.91C131.226 261.905 129.943 260.548 129.027 258.95C128.11 257.353 127.587 255.56 127.5 253.72C127.457 252.787 127.603 251.855 127.93 250.98C128.303 250.006 129.012 249.197 129.93 248.7C130.792 248.247 131.776 248.079 132.74 248.22C133.634 248.331 134.482 248.676 135.2 249.22C135.827 249.739 136.341 250.379 136.712 251.103C137.084 251.827 137.304 252.618 137.36 253.43C137.488 254.83 137.261 256.241 136.7 257.53C135.759 259.642 134.196 261.418 132.22 262.62C130.798 263.495 129.25 264.146 127.63 264.55C124.99 265.19 123.51 265.18 123.48 265.03C123.45 264.88 124.89 264.49 127.32 263.58C128.772 263.041 130.147 262.315 131.41 261.42C133.018 260.272 134.26 258.686 134.99 256.85C135.371 255.836 135.502 254.745 135.37 253.67C135.255 252.603 134.728 251.623 133.9 250.94C133.491 250.642 133.009 250.461 132.506 250.415C132.002 250.37 131.496 250.461 131.04 250.68C130.61 251.024 130.281 251.478 130.087 251.994C129.893 252.509 129.843 253.068 129.94 253.61C130.05 255.048 130.491 256.442 131.231 257.681C131.97 258.92 132.986 259.97 134.2 260.75C135.513 261.556 137.01 262.011 138.549 262.072C140.088 262.133 141.617 261.799 142.99 261.1C144.379 260.43 145.559 259.393 146.4 258.1C147.215 256.807 147.702 255.334 147.82 253.81C147.949 252.357 147.708 250.895 147.12 249.56C146.9 248.98 146.556 248.455 146.112 248.022C145.668 247.588 145.135 247.257 144.55 247.05C144.032 246.912 143.484 246.937 142.98 247.12C142.764 247.191 142.564 247.305 142.392 247.454C142.221 247.604 142.08 247.786 141.98 247.99C141.648 249.088 141.733 250.271 142.22 251.31C143.056 253.513 144.677 255.329 146.77 256.41C148.504 257.33 150.495 257.65 152.43 257.32C153.929 257.066 155.355 256.489 156.61 255.63C158.63 254.28 159.31 252.9 159.51 253Z"
        fill="white" />
    <path
        d="M165.77 265.37C165.92 266.07 158.3 268.27 148.77 270.27C139.24 272.27 131.36 273.32 131.22 272.61C131.08 271.9 138.69 269.72 148.22 267.72C157.75 265.72 165.62 264.67 165.77 265.37Z"
        fill="white" />
    <path
        d="M198.54 212.39C198.2 212.39 197.75 210.94 197.54 208.49C197.277 205.288 197.422 202.065 197.97 198.9C198.485 195.726 199.392 192.629 200.67 189.68C201.67 187.44 202.59 186.19 202.91 186.32C203.6 186.62 201.69 192.22 200.54 199.32C199.39 206.42 199.3 212.33 198.54 212.39Z"
        fill="white" />
    <path
        d="M199.11 183.7C199.19 183.7 199.29 184.05 199.27 184.7C199.236 185.702 198.995 186.686 198.56 187.59C197.895 189.058 196.862 190.329 195.56 191.28C193.771 192.599 191.548 193.189 189.34 192.93C188.063 192.788 186.827 192.397 185.7 191.78C184.459 191.114 183.377 190.185 182.53 189.06C182.062 188.447 181.679 187.775 181.39 187.06C181.004 186.2 180.916 185.235 181.14 184.32C181.306 183.762 181.637 183.267 182.09 182.9C182.517 182.552 183.027 182.321 183.57 182.23C184.483 182.082 185.417 182.165 186.29 182.47C189.476 183.652 192.149 185.908 193.85 188.85C194.758 190.405 195.35 192.125 195.59 193.91C195.887 195.876 195.479 197.884 194.44 199.58C193.298 201.224 191.588 202.389 189.64 202.85C187.924 203.291 186.146 203.439 184.38 203.29C183.467 203.236 182.567 203.048 181.71 202.73C180.781 202.376 179.959 201.791 179.32 201.03C178.621 200.249 178.235 199.238 178.235 198.19C178.235 197.142 178.621 196.131 179.32 195.35C179.941 194.635 180.753 194.111 181.66 193.84C182.485 193.589 183.353 193.507 184.21 193.6C185.769 193.769 187.246 194.388 188.46 195.38C189.517 196.24 190.371 197.323 190.959 198.553C191.547 199.782 191.855 201.127 191.86 202.49C191.857 203.679 191.573 204.851 191.03 205.91C190.552 206.835 189.904 207.663 189.12 208.35C187.88 209.402 186.376 210.093 184.77 210.35C183.77 210.52 182.744 210.462 181.77 210.18C181.12 209.97 180.82 209.76 180.85 209.69C180.85 209.45 182.27 209.97 184.54 209.36C185.886 208.967 187.113 208.245 188.11 207.26C188.74 206.64 189.233 205.896 189.558 205.074C189.884 204.253 190.034 203.373 190 202.49C189.938 201.43 189.647 200.396 189.149 199.459C188.65 198.522 187.954 197.703 187.11 197.06C186.192 196.424 185.115 196.057 184 196C183.478 195.923 182.945 195.974 182.447 196.149C181.949 196.323 181.501 196.615 181.14 197C180.812 197.339 180.629 197.793 180.629 198.265C180.629 198.737 180.812 199.19 181.14 199.53C181.581 199.961 182.103 200.299 182.677 200.524C183.251 200.749 183.864 200.856 184.48 200.84C185.951 200.947 187.431 200.815 188.86 200.45C190.194 200.143 191.371 199.361 192.17 198.25C192.873 197.061 193.138 195.664 192.92 194.3C192.733 192.859 192.264 191.469 191.54 190.21C190.171 187.782 188.021 185.89 185.44 184.84C184.951 184.646 184.423 184.574 183.9 184.63C183.758 184.631 183.619 184.675 183.502 184.755C183.384 184.835 183.293 184.948 183.24 185.08C183.01 185.63 183.53 186.97 184.18 187.84C184.805 188.716 185.597 189.459 186.51 190.029C187.423 190.599 188.439 190.983 189.5 191.16C191.281 191.462 193.111 191.107 194.65 190.16C195.854 189.404 196.865 188.377 197.6 187.16C198.079 186.383 198.443 185.541 198.68 184.66C198.93 184 199 183.7 199.11 183.7Z"
        fill="white" />
    <path
        d="M87.3699 133.14C87.3699 133.24 87.0399 133.24 86.4999 133.32C85.5417 133.487 84.6529 133.929 83.9424 134.594C83.2319 135.258 82.7306 136.115 82.4999 137.06C82.178 138.594 82.3897 140.192 83.0999 141.59C84.0369 143.345 85.3727 144.855 86.9999 146C87.3089 146.254 87.6712 146.435 88.0599 146.53C88.3099 146.53 88.2699 146.53 88.3499 146.39C88.4589 146.065 88.4589 145.714 88.3499 145.39C88.2117 144.924 87.9841 144.489 87.6799 144.11C86.9884 143.236 86.0571 142.583 84.9999 142.23C83.837 141.843 82.615 141.663 81.3899 141.7C80.0875 141.678 78.7874 141.819 77.5199 142.12C77.0118 142.199 76.5351 142.416 76.1419 142.748C75.7487 143.079 75.454 143.512 75.2899 144C75.1489 145.15 75.4028 146.313 76.0099 147.3C76.3099 147.88 76.6599 148.5 77.0099 149.08C77.3095 149.615 77.6684 150.115 78.0799 150.57C78.4046 150.949 78.8163 151.244 79.2799 151.43C79.662 151.593 80.0863 151.628 80.4899 151.53C80.6485 151.484 80.7955 151.405 80.9213 151.298C81.0471 151.191 81.1489 151.059 81.2199 150.91C81.4031 150.538 81.4759 150.122 81.4299 149.71C81.3512 149.259 81.1754 148.83 80.9147 148.454C80.654 148.077 80.3145 147.762 79.9199 147.53C79.0553 146.962 78.0866 146.571 77.0699 146.38C75.2103 145.967 73.2658 146.193 71.5499 147.02C70.1429 147.69 69.0472 148.875 68.4899 150.33C68.0469 151.458 67.919 152.685 68.1199 153.88C68.2428 154.655 68.5145 155.398 68.9199 156.07C69.1899 156.54 69.3799 156.79 69.3099 156.87C69.2399 156.95 68.9499 156.81 68.5099 156.4C67.859 155.777 67.3831 154.994 67.1299 154.13C66.7937 152.995 66.7271 151.798 66.9355 150.633C67.1438 149.468 67.6213 148.368 68.3299 147.42C68.9734 146.612 69.764 145.933 70.6599 145.42C72.7257 144.263 75.1285 143.856 77.4599 144.27C78.7789 144.474 80.0438 144.94 81.1799 145.64C81.8704 146.041 82.464 146.59 82.9185 147.247C83.373 147.903 83.6774 148.652 83.8099 149.44C83.9377 150.324 83.7984 151.226 83.4099 152.03C83.1924 152.48 82.885 152.881 82.5067 153.208C82.1283 153.534 81.687 153.78 81.2099 153.93C80.3119 154.155 79.369 154.127 78.4862 153.848C77.6034 153.569 76.8154 153.05 76.2099 152.35C75.6665 151.768 75.1901 151.128 74.7899 150.44C74.3999 149.8 74.0399 149.18 73.6799 148.44C73.298 147.709 72.9994 146.937 72.7899 146.14C72.5583 145.211 72.5583 144.239 72.7899 143.31C73.0611 142.323 73.6389 141.447 74.4399 140.81C75.159 140.266 75.9778 139.868 76.8499 139.64C77.6191 139.436 78.406 139.305 79.1999 139.25C79.9599 139.19 80.6799 139.16 81.4299 139.17C82.9517 139.154 84.4644 139.405 85.8999 139.91C87.3587 140.456 88.6317 141.407 89.5699 142.65C90.0312 143.285 90.3703 144.001 90.5699 144.76C90.8154 145.634 90.7409 146.566 90.3599 147.39C90.1087 147.888 89.6963 148.286 89.1899 148.52C88.7064 148.733 88.1697 148.796 87.6499 148.7C86.9138 148.529 86.2286 148.186 85.6499 147.7C83.8465 146.29 82.4064 144.47 81.4499 142.39C80.6666 140.589 80.5531 138.567 81.1299 136.69C81.5894 135.269 82.5825 134.083 83.8999 133.38C84.7006 132.935 85.6186 132.746 86.5299 132.84C87.1099 132.88 87.3799 133.06 87.3699 133.14Z"
        fill="white" />
    <path
        d="M59.9399 150.69C59.3099 150.42 61.3999 144.36 65.9399 137.98C70.4799 131.6 75.5199 127.63 75.9399 128.14C76.3599 128.65 72.3899 133.33 68.0199 139.49C63.6499 145.65 60.6199 151 59.9399 150.69Z"
        fill="white" />
    <g opacity="0.3">
        <path opacity="0.3"
            d="M128.79 176.08C127.742 176.658 126.88 177.523 126.306 178.573C125.732 179.623 125.47 180.816 125.55 182.01C125.663 183.204 126.131 184.336 126.894 185.261C127.657 186.186 128.68 186.862 129.83 187.2C130.99 187.499 132.215 187.431 133.336 187.007C134.456 186.583 135.418 185.822 136.09 184.83C136.715 183.808 136.996 182.613 136.892 181.42C136.787 180.226 136.303 179.098 135.51 178.2"
            fill="black" />
    </g>
    <path
        d="M136.54 180.53C136.311 181.638 135.759 182.653 134.954 183.447C134.148 184.241 133.125 184.778 132.014 184.991C130.903 185.203 129.754 185.082 128.712 184.642C127.67 184.202 126.782 183.463 126.161 182.518C125.539 181.573 125.211 180.465 125.218 179.334C125.226 178.203 125.569 177.1 126.203 176.164C126.838 175.227 127.736 174.5 128.784 174.074C129.832 173.648 130.982 173.542 132.09 173.77C132.826 173.921 133.525 174.216 134.148 174.638C134.77 175.06 135.303 175.6 135.716 176.228C136.129 176.856 136.415 177.559 136.556 178.297C136.698 179.035 136.692 179.794 136.54 180.53Z"
        fill="#3C55AC" />
    <g opacity="0.3">
        <path opacity="0.3"
            d="M117.28 199.77C116.231 200.349 115.369 201.216 114.795 202.268C114.221 203.32 113.959 204.514 114.04 205.71C114.153 206.904 114.621 208.036 115.384 208.961C116.147 209.886 117.17 210.562 118.32 210.9C119.48 211.199 120.705 211.131 121.826 210.707C122.946 210.283 123.908 209.522 124.58 208.53C125.205 207.508 125.486 206.311 125.379 205.118C125.273 203.924 124.786 202.796 123.99 201.9"
            fill="black" />
    </g>
    <path
        d="M124.92 204.75C124.691 205.858 124.138 206.873 123.332 207.667C122.526 208.46 121.502 208.997 120.391 209.209C119.279 209.421 118.13 209.299 117.088 208.858C116.046 208.417 115.159 207.676 114.538 206.731C113.917 205.785 113.59 204.676 113.599 203.545C113.608 202.414 113.952 201.31 114.588 200.375C115.224 199.439 116.124 198.713 117.172 198.289C118.221 197.864 119.372 197.76 120.48 197.99C121.965 198.298 123.267 199.183 124.1 200.45C124.932 201.718 125.227 203.265 124.92 204.75Z"
        fill="#3C55AC" />
    <path
        d="M127.09 180.25C126.921 179.89 126.833 179.497 126.833 179.1C126.833 178.702 126.921 178.31 127.09 177.95C127.47 176.68 128.34 175.95 128.42 176.08C128.5 176.21 127.93 176.97 127.58 178.08C127.23 179.19 127.24 180.23 127.09 180.25Z"
        fill="white" />
    <path
        d="M128.19 182.41C128.12 182.53 127.83 182.47 127.67 182.19C127.51 181.91 127.67 181.63 127.78 181.64C127.89 181.65 128.04 181.79 128.13 181.94C128.177 182.008 128.207 182.086 128.218 182.168C128.228 182.249 128.219 182.333 128.19 182.41Z"
        fill="white" />
    <path
        d="M115.54 204.09C115.303 203.736 115.157 203.329 115.113 202.906C115.07 202.482 115.13 202.055 115.29 201.66C115.67 200.27 116.7 199.59 116.77 199.71C116.391 200.384 116.057 201.082 115.77 201.8C115.652 202.558 115.575 203.323 115.54 204.09Z"
        fill="white" />
    <path
        d="M117 207.28C116.89 207.37 116.6 207.2 116.34 206.89C116.08 206.58 115.98 206.27 116.09 206.18C116.2 206.09 116.49 206.26 116.75 206.56C117.01 206.86 117.1 207.19 117 207.28Z"
        fill="white" />
    <path
        d="M72.62 121.3C70.2588 120.625 67.8311 120.21 65.38 120.06C62.9263 120.087 60.4825 120.375 58.09 120.92C58.7097 120.553 59.3853 120.289 60.09 120.14C63.5398 119.248 67.1706 119.342 70.57 120.41C71.3005 120.583 71.9945 120.885 72.62 121.3Z"
        fill="white" />
    <g opacity="0.3">
        <path opacity="0.3"
            d="M163.33 136.32C163.69 136.46 163.72 137.82 162.66 139.8C162.003 141.011 161.028 142.021 159.84 142.72C159.053 143.182 158.18 143.481 157.274 143.598C156.369 143.714 155.449 143.647 154.57 143.4C153.605 143.106 152.738 142.557 152.06 141.81C151.476 141.158 151.028 140.396 150.74 139.57C150.315 138.31 150.158 136.974 150.28 135.65C150.49 133.46 151.23 132.29 151.62 132.38C152.01 132.47 152.1 133.73 152.45 135.56C152.617 136.572 152.92 137.558 153.35 138.49C153.541 138.953 153.828 139.37 154.192 139.715C154.555 140.06 154.987 140.324 155.46 140.49C156.486 140.754 157.57 140.666 158.54 140.24C159.433 139.828 160.241 139.251 160.92 138.54C162.19 137.22 162.92 136.14 163.33 136.32Z"
            fill="black" />
    </g>
    <path opacity="0.3"
        d="M150.73 127.68C150.312 128.219 149.743 128.622 149.095 128.838C148.448 129.054 147.751 129.073 147.093 128.893C146.435 128.713 145.845 128.341 145.398 127.826C144.951 127.31 144.667 126.674 144.581 125.997C144.496 125.32 144.613 124.632 144.919 124.022C145.224 123.412 145.703 122.906 146.296 122.568C146.889 122.23 147.569 122.075 148.249 122.124C148.93 122.172 149.581 122.422 150.12 122.84C150.843 123.401 151.313 124.226 151.427 125.134C151.542 126.041 151.291 126.957 150.73 127.68Z"
        fill="black" />
    <path opacity="0.3"
        d="M174.12 137.23C173.702 137.769 173.133 138.172 172.485 138.388C171.838 138.604 171.141 138.623 170.483 138.443C169.825 138.262 169.235 137.891 168.788 137.376C168.341 136.86 168.057 136.223 167.971 135.546C167.886 134.869 168.003 134.182 168.309 133.572C168.614 132.962 169.093 132.456 169.686 132.118C170.279 131.78 170.959 131.625 171.639 131.674C172.32 131.722 172.971 131.971 173.51 132.39C174.23 132.953 174.699 133.777 174.813 134.684C174.927 135.591 174.678 136.506 174.12 137.23Z"
        fill="black" />
    <path
        d="M162.46 135C162.76 135.11 162.74 136.45 161.66 138.38C160.994 139.551 160.032 140.527 158.87 141.21C158.107 141.654 157.262 141.94 156.386 142.052C155.51 142.164 154.62 142.098 153.77 141.86C152.841 141.577 152.005 141.048 151.35 140.33C150.783 139.699 150.348 138.961 150.07 138.16C149.641 136.928 149.474 135.62 149.58 134.32C149.74 132.16 150.42 130.98 150.75 131.06C151.08 131.14 151.11 132.39 151.42 134.24C151.572 135.275 151.865 136.284 152.29 137.24C152.488 137.733 152.791 138.177 153.178 138.541C153.565 138.905 154.026 139.181 154.53 139.35C155.61 139.636 156.755 139.537 157.77 139.07C158.679 138.631 159.497 138.023 160.18 137.28C161.43 135.94 162.11 134.85 162.46 135Z"
        fill="white" />
    <path
        d="M149.86 126.35C149.442 126.889 148.873 127.292 148.225 127.508C147.578 127.724 146.881 127.743 146.223 127.563C145.565 127.382 144.975 127.011 144.528 126.496C144.081 125.98 143.797 125.344 143.711 124.667C143.626 123.99 143.743 123.302 144.049 122.692C144.354 122.082 144.833 121.576 145.426 121.238C146.019 120.9 146.699 120.745 147.379 120.794C148.06 120.842 148.711 121.092 149.25 121.51C149.973 122.071 150.443 122.896 150.557 123.804C150.672 124.711 150.421 125.627 149.86 126.35Z"
        fill="white" />
    <path
        d="M173.25 135.91C172.831 136.448 172.262 136.849 171.615 137.064C170.967 137.278 170.271 137.296 169.614 137.115C168.956 136.934 168.367 136.563 167.921 136.047C167.475 135.532 167.191 134.896 167.106 134.219C167.021 133.543 167.138 132.856 167.443 132.247C167.748 131.637 168.227 131.131 168.819 130.793C169.411 130.455 170.09 130.3 170.77 130.347C171.45 130.395 172.101 130.643 172.64 131.06C172.999 131.338 173.3 131.684 173.525 132.078C173.75 132.473 173.895 132.908 173.952 133.358C174.009 133.809 173.976 134.266 173.855 134.704C173.735 135.142 173.529 135.552 173.25 135.91Z"
        fill="white" />
</svg>
