<svg width="92" height="92" viewBox="0 0 92 92" fill="none" xmlns="http://www.w3.org/2000/svg">
    <circle opacity="0.25" cx="46" cy="46" r="46" fill="#2EC662" />
    <circle opacity="0.75" cx="46.0296" cy="45.9706" r="29.4306" fill="#2EC662" />
    <path d="M58.5 44.8496V45.9996C58.4985 48.6951 57.6256 51.318 56.0117 53.4769C54.3977 55.6358 52.1291 57.2152 49.5442 57.9795C46.9593 58.7438 44.1966 58.652 41.6681 57.7178C39.1396 56.7837 36.9808 55.0572 35.5137 52.7959C34.0466 50.5347 33.3497 47.8597 33.5271 45.17C33.7045 42.4803 34.7465 39.92 36.4978 37.871C38.2492 35.8219 40.616 34.3938 43.2452 33.7998C45.8745 33.2058 48.6253 33.4775 51.0875 34.5746" stroke="white" stroke-width="2.50714" stroke-linecap="round" stroke-linejoin="round" />
    <path d="M58.5 35.9998L46 48.5123L42.25 44.7623" stroke="white" stroke-width="2.50714" stroke-linecap="round" stroke-linejoin="round" />
</svg>