<svg width="183" height="183" viewBox="0 0 183 183" fill="none" xmlns="http://www.w3.org/2000/svg">
    <circle opacity="0.25" cx="91.5" cy="91.5" r="91.5" fill="#E93434" />
    <circle cx="91.5588" cy="91.4417" r="58.5413" fill="#E93434" />
    <path d="M69.3905 76.7812H74.3175H113.734" stroke="white" stroke-width="4.927" stroke-linecap="round"
        stroke-linejoin="round" />
    <path
        d="M81.708 76.7808V71.8538C81.708 70.547 82.2271 69.2938 83.1511 68.3698C84.0751 67.4459 85.3283 66.9268 86.635 66.9268H96.489C97.7957 66.9268 99.0489 67.4459 99.9729 68.3698C100.897 69.2938 101.416 70.547 101.416 71.8538V76.7808M108.807 76.7808V111.27C108.807 112.576 108.287 113.83 107.363 114.754C106.439 115.678 105.186 116.197 103.88 116.197H79.2445C77.9378 116.197 76.6846 115.678 75.7606 114.754C74.8366 113.83 74.3175 112.576 74.3175 111.27V76.7808H108.807Z"
        stroke="white" stroke-width="4.927" stroke-linecap="round" stroke-linejoin="round" />
    <path d="M86.635 89.0986V103.88" stroke="white" stroke-width="4.927" stroke-linecap="round"
        stroke-linejoin="round" />
    <path d="M96.489 89.0986V103.88" stroke="white" stroke-width="4.927" stroke-linecap="round"
        stroke-linejoin="round" />
</svg>