<svg width="474" height="421" viewBox="0 0 474 421" fill="none" xmlns="http://www.w3.org/2000/svg">
    <path
        d="M234.351 225.529H91.675C87.9094 225.525 84.2993 224.027 81.6366 221.364C78.9739 218.702 77.4761 215.092 77.4719 211.326V137.297C77.4761 133.532 78.9739 129.922 81.6366 127.259C84.2993 124.596 87.9094 123.098 91.675 123.094H234.351C238.116 123.098 241.726 124.596 244.389 127.259C247.052 129.922 248.55 133.532 248.554 137.297V211.326C248.55 215.092 247.052 218.702 244.389 221.364C241.726 224.027 238.116 225.525 234.351 225.529Z"
        fill="#F2F2F2" />
    <path
        d="M422.222 225.529H279.546C275.78 225.525 272.17 224.027 269.508 221.364C266.845 218.702 265.347 215.092 265.343 211.326V137.297C265.347 133.532 266.845 129.922 269.508 127.259C272.17 124.596 275.78 123.098 279.546 123.094H422.222C425.987 123.098 429.597 124.596 432.26 127.259C434.923 129.922 436.421 133.532 436.425 137.297V211.326C436.421 215.092 434.923 218.702 432.26 221.364C429.597 224.027 425.987 225.525 422.222 225.529Z"
        fill="#F2F2F2" />
    <path
        d="M248.554 348.623H77.4719V254.366C77.4761 250.6 78.9739 246.99 81.6366 244.327C84.2993 241.665 87.9094 240.167 91.675 240.163H234.351C238.116 240.167 241.726 241.665 244.389 244.327C247.052 246.99 248.55 250.6 248.554 254.366V348.623Z"
        fill="#F2F2F2" />
    <path
        d="M436.425 348.623H265.343V254.366C265.347 250.6 266.845 246.99 269.508 244.327C272.17 241.665 275.78 240.167 279.546 240.163H422.222C425.987 240.167 429.597 241.665 432.26 244.327C434.923 246.99 436.421 250.6 436.425 254.366V348.623Z"
        fill="#F2F2F2" />
    <path
        d="M422.222 108.461H279.546C275.78 108.456 272.17 106.959 269.508 104.296C266.845 101.633 265.347 98.023 265.343 94.2574V14.2032C265.347 10.4376 266.845 6.8274 269.508 4.16471C272.17 1.50202 275.78 0.0042559 279.546 0H422.222C425.987 0.0042559 429.597 1.50202 432.26 4.16471C434.923 6.8274 436.421 10.4376 436.425 14.2032V94.2574C436.421 98.023 434.923 101.633 432.26 104.296C429.597 106.959 425.987 108.456 422.222 108.461Z"
        fill="#F2F2F2" />
    <path
        d="M234.351 108.461H91.675C87.9094 108.456 84.2993 106.959 81.6366 104.296C78.9739 101.633 77.4761 98.023 77.4719 94.2574V14.2032C77.4761 10.4376 78.9739 6.8274 81.6366 4.16471C84.2993 1.50202 87.9094 0.0042559 91.675 0H234.351C238.116 0.0042559 241.726 1.50202 244.389 4.16471C247.052 6.8274 248.55 10.4376 248.554 14.2032V94.2574C248.55 98.023 247.052 101.633 244.389 104.296C241.726 106.959 238.116 108.456 234.351 108.461Z"
        fill="#F2F2F2" />
    <path
        d="M431.69 352.927H85.6494C83.4806 352.927 81.4006 352.066 79.867 350.532C78.3334 348.999 77.4719 346.919 77.4719 344.75C77.4719 342.581 78.3334 340.501 79.867 338.967C81.4006 337.434 83.4806 336.572 85.6494 336.572H431.69C433.859 336.572 435.939 337.434 437.473 338.967C439.006 340.501 439.868 342.581 439.868 344.75C439.868 346.919 439.006 348.999 437.473 350.532C435.939 352.066 433.859 352.927 431.69 352.927Z"
        fill="#CCCCCC" />
    <path
        d="M243.606 344.319H102.435V311.609C102.435 292.889 109.872 274.935 123.109 261.698C136.346 248.46 154.3 241.024 173.02 241.024C191.741 241.024 209.695 248.46 222.932 261.698C236.169 274.935 243.606 292.889 243.606 311.609V344.319Z"
        fill="#CCCCCC" />
    <path
        d="M412.322 344.319H271.151V311.609C271.151 292.889 278.588 274.935 291.826 261.698C305.063 248.46 323.017 241.024 341.737 241.024C360.457 241.024 378.411 248.46 391.648 261.698C404.886 274.935 412.322 292.889 412.322 311.609V344.319Z"
        fill="#CCCCCC" />
    <path d="M335.281 419.639H346.471V347.332H335.281V419.639Z" fill="#CCCCCC" />
    <path
        d="M303.431 419.246C303.431 420.455 320.389 419.714 341.307 419.714C362.224 419.714 379.182 420.455 379.182 419.246C379.182 418.037 362.224 408.449 341.307 408.449C320.389 408.449 303.431 418.037 303.431 419.246Z"
        fill="#CCCCCC" />
    <path d="M166.565 419.639H177.755V347.332H166.565V419.639Z" fill="#CCCCCC" />
    <path
        d="M134.715 419.246C134.715 420.455 151.672 419.714 172.59 419.714C193.508 419.714 210.465 420.455 210.465 419.246C210.465 418.037 193.508 408.449 172.59 408.449C151.672 408.449 134.715 418.037 134.715 419.246Z"
        fill="#CCCCCC" />
    <path d="M222.454 409.782H233.008L238.028 369.077H222.453L222.454 409.782Z" fill="#A0616A" />
    <path
        d="M253.361 419.58L220.193 419.582L220.193 406.767L240.546 406.766C242.228 406.766 243.895 407.098 245.449 407.742C247.004 408.385 248.417 409.329 249.607 410.519C250.797 411.709 251.741 413.122 252.385 414.676C253.029 416.231 253.361 417.898 253.361 419.58L253.361 419.58Z"
        fill="#282828" />
    <path d="M238.928 403.893L248.997 400.733L241.601 360.391L226.74 365.054L238.928 403.893Z" fill="#A0616A" />
    <path
        d="M271.35 403.988L239.705 413.919L235.868 401.692L255.287 395.598C258.529 394.581 262.043 394.893 265.056 396.466C268.068 398.04 270.333 400.746 271.35 403.988Z"
        fill="#282828" />
    <path
        d="M231.868 385.157L212.563 334.481C208.232 335.498 171.91 343.535 159.745 330.583C155.576 326.144 154.763 319.712 157.328 311.466L164.428 302.545L164.648 302.557C167.333 302.698 230.444 306.235 234.77 325.272C238.418 341.321 245.079 371.243 247.034 380.032C247.232 380.942 247.097 381.894 246.652 382.713C246.207 383.532 245.483 384.164 244.612 384.494L236.848 387.405C236.415 387.568 235.957 387.651 235.495 387.651C234.709 387.651 233.942 387.413 233.294 386.967C232.647 386.522 232.149 385.891 231.868 385.157Z"
        fill="#282828" />
    <path
        d="M220.678 391.183L201.372 340.507C197.041 341.524 160.72 349.56 148.555 336.609C144.386 332.169 143.572 325.738 146.138 317.492L153.237 308.57L153.458 308.582C156.142 308.723 219.253 312.261 223.58 331.297C227.227 347.347 233.889 377.269 235.844 386.057C236.042 386.968 235.906 387.919 235.462 388.738C235.017 389.557 234.293 390.19 233.421 390.519L225.658 393.431C225.225 393.593 224.767 393.677 224.304 393.677C223.519 393.677 222.751 393.438 222.104 392.993C221.456 392.548 220.959 391.916 220.678 391.183Z"
        fill="#282828" />
    <path
        d="M203.312 292.864C200.451 292.863 197.639 292.119 195.152 290.705C192.664 289.291 190.587 287.255 189.122 284.797L182.991 274.411L197.564 266.446L203.752 274.93L245.736 270.507C245.94 270.137 246.17 269.782 246.424 269.444C247.23 268.384 248.249 267.506 249.417 266.866C250.585 266.226 251.874 265.839 253.201 265.731C254.534 265.617 255.876 265.789 257.137 266.236C258.398 266.683 259.549 267.395 260.512 268.324C262.056 269.805 263.054 271.764 263.345 273.883C263.635 276.002 263.201 278.158 262.113 279.999C261.432 281.147 260.516 282.137 259.426 282.906C258.335 283.675 257.094 284.205 255.785 284.461C254.475 284.717 253.126 284.694 251.827 284.392C250.527 284.091 249.305 283.518 248.242 282.712C247.996 282.523 247.759 282.322 247.534 282.109L207.322 292.361C206.012 292.696 204.665 292.864 203.312 292.864Z"
        fill="#A0616A" />
    <path
        d="M145.865 320.168C145.284 319.749 144.83 319.178 144.554 318.517C144.277 317.856 144.189 317.132 144.299 316.424C146.695 300.635 143.939 278.016 141.205 261.822C140.645 258.536 140.863 255.165 141.841 251.978C142.818 248.791 144.529 245.878 146.835 243.471C149.141 241.065 151.979 239.232 155.121 238.119C158.262 237.006 161.621 236.645 164.928 237.064C167.805 237.444 170.655 238.005 173.461 238.746C178.122 239.919 182.245 242.644 185.152 246.472C188.059 250.3 189.577 255.003 189.456 259.807C189.048 275.435 192.221 294.933 193.604 302.59C193.698 303.116 193.683 303.656 193.56 304.176C193.436 304.696 193.207 305.185 192.886 305.612C192.572 306.035 192.172 306.388 191.713 306.647C191.254 306.907 190.746 307.067 190.222 307.119C174.893 308.683 158.362 316.159 149.872 320.475C149.327 320.757 148.722 320.905 148.108 320.907C147.301 320.904 146.515 320.645 145.865 320.168Z"
        fill="#0D2C99" />
    <path
        d="M187.244 279.442C186.77 279.256 186.338 278.978 185.973 278.623C185.607 278.269 185.316 277.846 185.115 277.378L176.566 257.629C176.048 256.436 175.771 255.153 175.75 253.852C175.728 252.552 175.963 251.26 176.441 250.05C176.92 248.841 177.632 247.737 178.536 246.803C179.441 245.869 180.521 245.122 181.715 244.605C182.909 244.089 184.192 243.812 185.493 243.792C186.793 243.772 188.085 244.008 189.294 244.487C190.503 244.967 191.606 245.679 192.54 246.585C193.473 247.491 194.219 248.571 194.735 249.765L203.284 269.514C203.691 270.457 203.707 271.523 203.329 272.478C202.951 273.432 202.21 274.198 201.268 274.608L190.209 279.395C189.742 279.598 189.24 279.707 188.731 279.716C188.222 279.724 187.717 279.631 187.244 279.442H187.244Z"
        fill="#0D2C99" />
    <path
        d="M163.355 230.345C175.031 230.345 184.497 220.88 184.497 209.203C184.497 197.527 175.031 188.061 163.355 188.061C151.678 188.061 142.213 197.527 142.213 209.203C142.213 220.88 151.678 230.345 163.355 230.345Z"
        fill="#A0616A" />
    <path
        d="M150.578 227.986C150.279 228.332 149.913 228.614 149.502 228.816C149.092 229.018 148.645 229.136 148.189 229.162C147.732 229.188 147.275 229.123 146.844 228.969C146.413 228.815 146.017 228.577 145.68 228.268C140.966 224.452 137.227 219.569 134.772 214.023C132.023 207.471 131.62 199.476 134.749 193.335C137.393 188.144 142.14 184.839 146.879 182.138C148.696 180.994 150.686 180.152 152.773 179.647C153.828 179.408 154.92 179.392 155.981 179.6C157.041 179.809 158.047 180.237 158.932 180.858C159.871 181.572 160.598 182.529 161.034 183.625C161.47 184.721 161.6 185.915 161.409 187.079C163.577 184.224 166.499 182.03 169.847 180.747C171.901 179.863 174.195 179.709 176.349 180.311C179.392 181.327 181.645 184.4 182.899 187.702C183.912 190.23 184.284 192.97 183.979 195.676C183.847 196.969 183.452 198.22 182.821 199.356C182.189 200.491 181.333 201.486 180.304 202.28C177.822 203.993 174.624 203.819 171.737 203.061C168.85 202.302 166.048 201.017 163.111 200.659C160.173 200.3 156.918 201.077 155.168 203.697C153.935 205.542 153.645 207.973 153.393 210.29L152.085 222.34C151.993 224.064 151.621 225.761 150.985 227.366C150.878 227.59 150.741 227.799 150.578 227.986Z"
        fill="#282828" />
    <path
        d="M195.772 314.94C194.515 314.501 193.365 313.802 192.396 312.889C191.427 311.975 190.661 310.868 190.148 309.64C190.029 309.353 189.926 309.06 189.839 308.762L144.8 295.943C142.865 295.384 141.161 294.216 139.942 292.612C138.723 291.008 138.054 289.054 138.033 287.04L137.923 269.65L154.525 270.094L155.606 280.539L194.119 297.83C194.482 297.614 194.859 297.422 195.248 297.258H195.248C196.667 296.663 198.209 296.423 199.741 296.557C201.274 296.692 202.75 297.197 204.044 298.03C205.337 298.863 206.408 299.998 207.165 301.337C207.921 302.677 208.341 304.18 208.386 305.718C208.432 307.255 208.102 308.781 207.426 310.163C206.75 311.545 205.748 312.741 204.507 313.649C203.265 314.557 201.821 315.149 200.299 315.374C198.777 315.599 197.224 315.45 195.772 314.94V314.94Z"
        fill="#A0616A" />
    <path
        d="M138.182 277.284C137.843 276.904 137.584 276.46 137.419 275.979C137.253 275.497 137.185 274.988 137.218 274.48L138.538 253.001C138.616 251.702 138.949 250.431 139.518 249.26C140.088 248.09 140.882 247.044 141.856 246.181C142.831 245.318 143.965 244.656 145.196 244.232C146.426 243.809 147.728 243.632 149.027 243.711C150.326 243.791 151.596 244.127 152.766 244.698C153.935 245.269 154.98 246.066 155.841 247.041C156.702 248.017 157.363 249.153 157.784 250.384C158.206 251.615 158.381 252.918 158.299 254.216L156.978 275.696C156.914 276.721 156.446 277.678 155.676 278.358C154.907 279.038 153.899 279.386 152.874 279.324L140.846 278.584C140.338 278.555 139.841 278.425 139.383 278.201C138.926 277.978 138.518 277.666 138.182 277.284Z"
        fill="#0D2C99" />
    <path
        d="M255.716 287.937H243.548C243.157 287.938 242.78 287.794 242.491 287.531C242.202 287.269 242.021 286.908 241.985 286.519L239.549 261.555H259.714L257.279 286.519C257.242 286.908 257.061 287.269 256.772 287.531C256.483 287.794 256.106 287.938 255.716 287.937Z"
        fill="#836644" />
    <path
        d="M259.682 264.695H239.581C239.165 264.695 238.766 264.529 238.471 264.235C238.177 263.941 238.011 263.541 238.011 263.125V259.356C238.011 258.94 238.177 258.541 238.471 258.246C238.766 257.952 239.165 257.786 239.581 257.786H259.682C260.098 257.786 260.497 257.952 260.792 258.246C261.086 258.541 261.252 258.94 261.252 259.356V263.125C261.252 263.541 261.086 263.941 260.792 264.235C260.497 264.529 260.098 264.695 259.682 264.695Z"
        fill="#3F3D56" />
    <path
        d="M72.7603 265.556H48.2162C47.4929 265.556 46.7992 265.844 46.2878 266.355C45.7764 266.866 45.489 267.56 45.489 268.283V320.099H49.5797V272.374C49.5797 271.651 49.867 270.957 50.3785 270.446C50.8899 269.934 51.5836 269.647 52.3069 269.647H70.0332C70.7565 269.647 71.4501 269.934 71.9616 270.446C72.473 270.957 72.7603 271.651 72.7603 272.374V320.099H76.851V268.283C76.851 267.56 76.5637 266.866 76.0523 266.355C75.5408 265.844 74.8472 265.556 74.1239 265.556H72.7603Z"
        fill="#595959" />
    <path
        d="M89.1231 419.639H30.4898C27.417 419.636 24.4709 418.414 22.298 416.241C20.1252 414.068 18.903 411.122 18.8995 408.049V322.144C18.903 319.071 20.1252 316.125 22.298 313.952C24.4709 311.78 27.417 310.557 30.4898 310.554H89.1231C92.196 310.557 95.1421 311.78 97.3149 313.952C99.4878 316.125 100.71 319.071 100.713 322.144V408.049C100.71 411.122 99.4878 414.068 97.3149 416.241C95.1421 418.414 92.196 419.636 89.1231 419.639Z"
        fill="#292929" />
    <path
        d="M19.9678 382.042C15.9823 382.042 13.8317 373.787 13.8317 366.02C13.8317 358.253 15.9822 349.998 19.9678 349.998C23.9533 349.998 26.1038 358.253 26.1038 366.02C26.1038 373.787 23.9532 382.042 19.9678 382.042ZM19.9678 351.362C17.7103 351.362 15.1953 357.382 15.1953 366.02C15.1953 374.658 17.7103 380.678 19.9678 380.678C22.2252 380.678 24.7402 374.658 24.7402 366.02C24.7402 357.382 22.2252 351.362 19.9678 351.362Z"
        fill="#292929" />
    <path
        d="M85.0324 368.505H74.1239C73.2201 368.504 72.3536 368.145 71.7146 367.506C71.0755 366.867 70.716 366 70.715 365.097V356.915C70.716 356.011 71.0755 355.145 71.7146 354.506C72.3536 353.867 73.2201 353.507 74.1239 353.506H85.0324C85.9362 353.507 86.8026 353.867 87.4417 354.506C88.0808 355.145 88.4402 356.011 88.4413 356.915V365.097C88.4402 366 88.0808 366.867 87.4417 367.506C86.8026 368.145 85.9362 368.504 85.0324 368.505Z"
        fill="white" />
    <path
        d="M88.4413 413.863H26.1038C25.7422 413.863 25.3953 413.719 25.1396 413.463C24.8839 413.208 24.7403 412.861 24.7402 412.499V317.372C24.7403 317.01 24.8839 316.663 25.1396 316.408C25.3954 316.152 25.7422 316.008 26.1038 316.008H88.4413C88.8029 316.008 89.1498 316.152 89.4055 316.408C89.6612 316.663 89.8049 317.01 89.8049 317.372C89.8049 317.733 89.6612 318.08 89.4055 318.336C89.1498 318.592 88.8029 318.735 88.4413 318.735H27.4674V411.136H88.4413C88.8024 411.136 89.1483 411.281 89.4033 411.536C89.6583 411.792 89.8015 412.138 89.8015 412.499C89.8015 412.86 89.6583 413.206 89.4033 413.462C89.1483 413.718 88.8024 413.862 88.4413 413.863Z"
        fill="white" />
    <path
        d="M417.255 158.779C416.453 158.088 415.524 157.559 414.519 157.224C412.272 156.529 409.913 156.272 407.569 156.469C405.849 156.566 404.141 156.804 402.46 157.181L323.985 179.382C322.503 179.798 321.045 180.283 319.613 180.837C314.555 178.857 300.253 173.131 298.686 171.076L292.535 172.874L302.789 188.181C302.53 188.294 302.311 188.483 302.161 188.723C302.01 188.963 301.936 189.243 301.948 189.526C301.959 189.809 302.056 190.081 302.225 190.308C302.394 190.535 302.627 190.706 302.895 190.798C314.717 194.857 332.572 189.468 332.572 189.468L401.142 169.877C401.142 169.877 421.839 162.876 417.255 158.779Z"
        fill="#0D2C99" />
    <path
        d="M472.578 420.5H0.860798C0.6325 420.5 0.413565 420.409 0.252134 420.248C0.0907035 420.086 0 419.868 0 419.639C0 419.411 0.0907035 419.192 0.252134 419.031C0.413565 418.869 0.6325 418.778 0.860798 418.778H472.578C472.807 418.778 473.026 418.869 473.187 419.031C473.348 419.192 473.439 419.411 473.439 419.639C473.439 419.868 473.348 420.086 473.187 420.248C473.026 420.409 472.807 420.5 472.578 420.5Z"
        fill="#CCCCCC" />
    <path
        d="M377.46 75.3199C375.69 75.3194 373.938 75.6844 372.316 76.3921C370.693 77.0997 369.234 78.1347 368.03 79.4323C366.594 78.8615 365.041 78.651 363.505 78.8193C361.97 78.9876 360.499 79.5296 359.221 80.3977C357.943 81.2659 356.898 82.4339 356.176 83.7996C355.454 85.1653 355.077 86.6871 355.079 88.2318H390.372C390.372 84.8074 389.012 81.5232 386.59 79.1017C384.169 76.6802 380.885 75.3199 377.46 75.3199Z"
        fill="white" />
    <path
        d="M188.084 33.1407C186.314 33.1403 184.563 33.5053 182.94 34.213C181.317 34.9206 179.858 35.9556 178.654 37.2532C177.218 36.6824 175.665 36.4719 174.129 36.6402C172.594 36.8085 171.123 37.3504 169.845 38.2186C168.568 39.0868 167.522 40.2548 166.8 41.6205C166.078 42.9862 165.702 44.508 165.704 46.0527H200.996C200.996 42.6283 199.636 39.344 197.215 36.9226C194.793 34.5011 191.509 33.1407 188.084 33.1407Z"
        fill="white" />
    <path
        d="M129.55 145.905C127.78 145.905 126.028 146.27 124.406 146.978C122.783 147.685 121.324 148.72 120.12 150.018C118.684 149.447 117.131 149.237 115.595 149.405C114.06 149.573 112.589 150.115 111.311 150.983C110.033 151.851 108.988 153.019 108.266 154.385C107.544 155.751 107.167 157.273 107.169 158.817H142.462C142.462 157.122 142.128 155.443 141.479 153.876C140.83 152.31 139.879 150.886 138.68 149.687C137.481 148.488 136.058 147.537 134.491 146.888C132.925 146.239 131.246 145.905 129.55 145.905Z"
        fill="white" />
</svg>