<svg width="17" height="15" viewBox="0 0 17 15" fill="none" xmlns="http://www.w3.org/2000/svg">
<path d="M5.82101 5.625H3.30549H5.82101ZM5.82101 5.625L5.86081 5.7633L6.3413 5.625V5.125H6.19739L4.89423 0.597363C4.80805 0.297949 5.03442 0 5.34816 0H7.28133C7.3646 -5.1834e-06 7.4464 0.0218306 7.51844 0.0632966C7.59048 0.104763 7.65021 0.164387 7.69157 0.236133L10.7935 5.625H14.1667C15.21 5.625 17 6.46436 17 7.5C17 8.53564 15.21 9.375 14.1667 9.375H10.7935L7.69128 14.7639C7.60716 14.9098 7.45074 15 7.28133 15H5.34816C5.03442 15 4.80805 14.7018 4.89423 14.4023L6.19738 9.875H6.3413V9.375L5.86081 9.2367L5.821 9.375H3.30549L2.03049 11.0625C1.94135 11.1806 1.80146 11.25 1.65271 11.25H0.472441L5.82101 5.625ZM10.3602 5.87444L10.5044 6.125H10.7935H14.1667C14.5813 6.125 15.203 6.30097 15.7214 6.60532C15.9763 6.75497 16.1814 6.92148 16.3175 7.08733C16.4533 7.25276 16.5 7.39091 16.5 7.5C16.5 7.60909 16.4533 7.74724 16.3175 7.91267C16.1814 8.07852 15.9763 8.24504 15.7214 8.39468C15.203 8.69903 14.5813 8.875 14.1667 8.875H10.7935H10.5044L10.3602 9.12555L7.26625 14.5H5.38642L6.8218 9.5133L7.00553 8.875H6.3413H3.30549H3.0566L2.90656 9.07358L1.63993 10.75H0.511289L1.42412 7.64085L1.46547 7.5L1.42412 7.35915L0.511289 4.25H1.63993L2.90656 5.92642L3.0566 6.125H3.30549H6.3413H7.00552L6.8218 5.4867L5.38651 0.5H7.26654L10.3602 5.87444ZM1.63143 4.23876L1.63155 4.23892L1.63143 4.23876Z" stroke="white"/>
</svg>
