<svg width="438" height="481" viewBox="0 0 438 481" fill="none" xmlns="http://www.w3.org/2000/svg">
    <path
        d="M346.556 105.249C332.581 101.461 318.406 98.4521 304.097 96.2367C280.645 92.6025 257.001 90.3303 233.286 89.4317C223.407 89.028 213.346 88.8196 203.174 88.8196C195.113 88.8196 187.116 88.9498 179.23 89.2103C156.097 89.8938 133.018 91.8438 110.098 95.0516C93.1318 97.3878 76.3299 100.794 59.7931 105.249C21.2355 115.909 0 130.197 0 145.474C0 160.751 21.2355 175.038 59.7931 185.699C86.9091 193.2 120.342 198.312 156.77 200.657C171.806 201.633 187.35 202.128 203.174 202.128C219.05 202.128 234.647 201.627 249.729 200.65C282.881 198.508 313.553 194.073 339.223 187.626C339.36 187.587 339.49 187.554 339.627 187.522C341.359 187.092 343.065 186.643 344.752 186.193C345.357 186.024 345.956 185.861 346.556 185.699C346.589 185.685 346.624 185.674 346.66 185.666C347.233 185.51 347.799 185.347 348.366 185.191C349.499 184.865 350.619 184.546 351.719 184.214C351.772 184.201 351.817 184.188 351.863 184.175C352.82 183.888 353.758 183.602 354.689 183.315C355.451 183.074 356.206 182.84 356.955 182.599C357.502 182.423 358.043 182.247 358.577 182.071C358.968 181.941 359.352 181.817 359.729 181.687C360.244 181.518 360.758 181.342 361.266 181.166C361.481 181.095 361.696 181.023 361.904 180.945C362.393 180.782 362.868 180.613 363.343 180.443C363.858 180.261 364.372 180.072 364.88 179.89C365.304 179.74 365.727 179.584 366.143 179.428C366.495 179.291 366.84 179.161 367.192 179.03C368.149 178.672 369.087 178.301 370.012 177.936C370.474 177.747 370.937 177.565 371.392 177.376C371.841 177.194 372.297 177.005 372.74 176.816C373.469 176.51 374.186 176.204 374.889 175.898C375.228 175.742 375.573 175.592 375.905 175.449C376.159 175.332 376.407 175.221 376.661 175.104C376.843 175.025 377.025 174.941 377.201 174.856C377.859 174.557 378.51 174.251 379.148 173.944C381.597 172.772 383.882 171.574 386.005 170.35C399.322 162.724 406.349 154.265 406.349 145.474C406.349 130.197 385.113 115.909 346.556 105.249ZM346.204 184.448C319.055 191.957 285.532 197.069 249.006 199.393C234.152 200.338 218.797 200.826 203.174 200.826C187.604 200.826 172.301 200.344 157.493 199.4C120.908 197.082 87.3323 191.97 60.1447 184.448C22.1993 173.951 1.3024 160.113 1.3024 145.474C1.30452 144.18 1.46642 142.892 1.78444 141.638C5.10531 128.432 25.5335 116.072 60.1447 106.5C76.5566 102.079 93.2297 98.6925 110.066 96.3605C133.124 93.1345 156.341 91.178 179.614 90.4997C187.376 90.2457 195.23 90.1198 203.174 90.122C213.209 90.122 223.134 90.3238 232.889 90.7146C256.742 91.6052 280.523 93.8883 304.11 97.5522C318.296 99.7576 332.348 102.745 346.204 106.5C380.809 116.072 401.23 128.426 404.558 141.625C404.881 142.883 405.045 144.176 405.046 145.474C405.046 160.113 384.149 173.951 346.204 184.448Z"
        fill="#3F3D56" />
    <path
        d="M405.978 146.067C405.978 154.767 398.808 162.998 386.005 170.35C383.876 171.574 381.584 172.772 379.148 173.945C378.51 174.251 377.859 174.557 377.201 174.856C377.025 174.941 376.843 175.026 376.661 175.104C376.407 175.221 376.159 175.332 375.905 175.449C375.573 175.592 375.228 175.742 374.889 175.898C374.186 176.204 373.47 176.51 372.74 176.816C372.297 177.005 371.841 177.194 371.392 177.376C370.937 177.565 370.474 177.748 370.012 177.936C369.087 178.301 368.149 178.672 367.192 179.03C366.84 179.161 366.495 179.291 366.143 179.428C365.727 179.584 365.304 179.74 364.88 179.89C364.372 180.072 363.858 180.261 363.343 180.444C362.868 180.613 362.393 180.782 361.904 180.945C361.696 181.023 361.481 181.095 361.266 181.166C360.758 181.342 360.244 181.518 359.729 181.687C359.352 181.818 358.968 181.941 358.577 182.072C358.043 182.247 357.502 182.423 356.955 182.599C356.206 182.84 355.451 183.074 354.689 183.315C353.758 183.602 352.82 183.888 351.863 184.175C351.817 184.188 351.772 184.201 351.719 184.214C350.619 184.546 349.499 184.865 348.366 185.191C347.799 185.347 347.233 185.51 346.66 185.666C346.624 185.674 346.589 185.685 346.556 185.699C345.956 185.862 345.357 186.024 344.752 186.194C343.072 186.636 341.359 187.086 339.627 187.522C339.49 187.555 339.36 187.587 339.223 187.626C314.249 193.865 283.611 198.41 249.703 200.605C234.849 201.562 219.363 202.07 203.454 202.07C187.402 202.07 171.786 201.555 156.815 200.579C67.4446 194.75 0.931274 172.558 0.931274 146.067C0.938311 144.455 1.18401 142.853 1.66038 141.313C1.69949 141.424 1.73859 141.528 1.78438 141.639C11.0767 166.046 77.024 185.77 162.592 190.583C175.7 191.325 189.278 191.709 203.174 191.709C217.13 191.709 230.759 191.319 243.92 190.576C329.416 185.744 395.298 166.013 404.558 141.626C404.714 141.235 404.851 140.844 404.968 140.453C405.628 142.252 405.97 144.151 405.978 146.067Z"
        fill="#282828" />
    <path
        d="M59.695 139.057C48.8573 139.057 37.3389 136.725 37.3389 132.404C37.3389 128.082 48.8573 125.751 59.695 125.751C70.5327 125.751 82.0511 128.082 82.0511 132.404C82.0511 136.725 70.5327 139.057 59.695 139.057ZM59.695 127.053C47.2877 127.053 38.6413 129.873 38.6413 132.404C38.6413 134.935 47.2877 137.755 59.695 137.755C72.1023 137.755 80.7487 134.935 80.7487 132.404C80.7487 129.873 72.1023 127.053 59.695 127.053Z"
        fill="#3F3D56" />
    <path
        d="M105.93 169.664C95.0925 169.664 83.5741 167.332 83.5741 163.011C83.5741 158.689 95.0925 156.357 105.93 156.357C116.768 156.357 128.286 158.689 128.286 163.011C128.286 167.332 116.768 169.664 105.93 169.664ZM105.93 157.66C93.5229 157.66 84.8765 160.48 84.8765 163.011C84.8765 165.541 93.5229 168.361 105.93 168.361C118.337 168.361 126.984 165.541 126.984 163.011C126.984 160.48 118.337 157.66 105.93 157.66Z"
        fill="#3F3D56" />
    <path
        d="M346.223 139.057C335.385 139.057 323.867 136.725 323.867 132.404C323.867 128.082 335.385 125.751 346.223 125.751C357.061 125.751 368.579 128.082 368.579 132.404C368.579 136.725 357.061 139.057 346.223 139.057ZM346.223 127.053C333.816 127.053 325.169 129.873 325.169 132.404C325.169 134.935 333.816 137.755 346.223 137.755C358.63 137.755 367.277 134.935 367.277 132.404C367.277 129.873 358.63 127.053 346.223 127.053Z"
        fill="#3F3D56" />
    <path
        d="M299.988 169.664C289.15 169.664 277.632 167.332 277.632 163.011C277.632 158.689 289.15 156.357 299.988 156.357C310.825 156.357 322.344 158.689 322.344 163.011C322.344 167.332 310.825 169.664 299.988 169.664ZM299.988 157.66C287.58 157.66 278.934 160.48 278.934 163.011C278.934 165.541 287.58 168.361 299.988 168.361C312.395 168.361 321.041 165.541 321.041 163.011C321.041 160.48 312.395 157.66 299.988 157.66Z"
        fill="#3F3D56" />
    <path
        d="M202.959 183.99C192.121 183.99 180.603 181.658 180.603 177.337C180.603 173.015 192.121 170.684 202.959 170.684C213.797 170.684 225.315 173.015 225.315 177.337C225.315 181.658 213.797 183.99 202.959 183.99ZM202.959 171.986C190.552 171.986 181.905 174.806 181.905 177.337C181.905 179.867 190.552 182.688 202.959 182.688C215.366 182.688 224.013 179.867 224.013 177.337C224.013 174.806 215.366 171.986 202.959 171.986Z"
        fill="#3F3D56" />
    <path
        d="M304.11 97.5522C273.751 92.7073 239.179 90.122 203.174 90.122C170.224 90.122 138.478 92.284 110.066 96.3605C110.072 95.9242 110.079 95.4879 110.098 95.0516C110.851 69.7262 121.481 45.7 139.715 28.1082C157.949 10.5164 182.34 0.754744 207.677 0.909528C233.013 1.06431 257.283 11.1233 275.301 28.9365C293.318 46.7498 303.654 70.9041 304.097 96.2368C304.104 96.6796 304.11 97.1159 304.11 97.5522Z"
        fill="#E93434" />
    <path
        d="M163.627 60.1092V51.8842L176.876 32.989H187.502V51.573H190.703V60.1092H187.502V64.9998H177.543V60.1092H163.627ZM178.343 44.2372L173.542 51.573H178.343V44.2372Z"
        fill="white" />
    <path
        d="M194.042 48.283C194.042 43.1554 195.124 39.1244 197.288 36.1901C199.481 33.2557 202.845 31.7886 207.38 31.7886C211.885 31.7886 215.234 33.2706 217.428 36.2345C219.621 39.1688 220.718 43.185 220.718 48.283C220.718 53.4107 219.621 57.4565 217.428 60.4205C215.234 63.3548 211.885 64.822 207.38 64.822C202.845 64.822 199.481 63.3548 197.288 60.4205C195.124 57.4565 194.042 53.4107 194.042 48.283ZM210.981 48.283C210.981 45.9119 210.744 44.1335 210.27 42.9479C209.795 41.7327 208.832 41.1251 207.38 41.1251C205.898 41.1251 204.92 41.7327 204.445 42.9479C203.971 44.1335 203.734 45.9119 203.734 48.283C203.734 50.6838 203.971 52.4919 204.445 53.7071C204.92 54.8927 205.898 55.4855 207.38 55.4855C208.832 55.4855 209.795 54.8927 210.27 53.7071C210.744 52.4919 210.981 50.6838 210.981 48.283Z"
        fill="white" />
    <path
        d="M224.368 60.1092V51.8842L237.617 32.989H248.243V51.573H251.444V60.1092H248.243V64.9998H238.284V60.1092H224.368ZM239.084 44.2372L234.283 51.573H239.084V44.2372Z"
        fill="white" />
    <path
        d="M219.365 345.829C241.902 345.829 260.173 327.558 260.173 305.02C260.173 282.483 241.902 264.212 219.365 264.212C196.827 264.212 178.556 282.483 178.556 305.02C178.556 327.558 196.827 345.829 219.365 345.829Z"
        fill="#2EC662" />
    <path
        d="M192.155 351.738C193.333 349.951 190.426 345.957 185.663 342.816C180.899 339.675 176.083 338.577 174.905 340.364C173.727 342.15 176.634 346.144 181.398 349.285C186.161 352.426 190.977 353.524 192.155 351.738Z"
        fill="#2EC662" />
    <path d="M234.883 331.832L229.331 342.917L249.192 352.863L254.744 341.778L234.883 331.832Z" fill="#2EC662" />
    <path
        d="M257.331 349.285C262.095 346.144 265.002 342.15 263.824 340.364C262.646 338.578 257.83 339.676 253.066 342.816C248.303 345.957 245.396 349.952 246.574 351.738C247.752 353.524 252.568 352.426 257.331 349.285Z"
        fill="#2EC662" />
    <path
        d="M216.508 308.985C224.21 308.985 230.455 302.741 230.455 295.038C230.455 287.335 224.21 281.091 216.508 281.091C208.805 281.091 202.561 287.335 202.561 295.038C202.561 302.741 208.805 308.985 216.508 308.985Z"
        fill="white" />
    <path
        d="M219.9 292.364C221.708 290.556 221.698 287.615 219.877 285.794C218.056 283.973 215.115 283.963 213.307 285.771C211.499 287.579 211.509 290.52 213.33 292.341C215.151 294.162 218.092 294.172 219.9 292.364Z"
        fill="#3F3D56" />
    <path
        d="M275.08 326.389C277.764 324.085 273.989 315.285 266.649 306.735C259.309 298.185 251.182 293.121 248.498 295.426C245.814 297.73 249.588 306.529 256.929 315.08C264.269 323.63 272.395 328.693 275.08 326.389Z"
        fill="#2EC662" />
    <path
        d="M181.915 315.079C189.255 306.529 193.029 297.73 190.345 295.425C187.661 293.121 179.534 298.184 172.194 306.735C164.854 315.285 161.08 324.085 163.764 326.389C166.448 328.693 174.574 323.63 181.915 315.079Z"
        fill="#2EC662" />
    <path
        d="M230.573 321.102C231.014 323.529 230.474 326.031 229.071 328.059C227.668 330.086 225.516 331.474 223.09 331.915C220.664 332.357 218.162 331.817 216.134 330.414C214.106 329.01 212.719 326.859 212.277 324.433L212.274 324.415C211.359 319.362 215.266 317.574 220.319 316.659C225.372 315.744 229.658 316.049 230.573 321.102Z"
        fill="white" />
    <path d="M203.847 331.831L183.986 341.777L189.537 352.862L209.398 342.916L203.847 331.831Z" fill="#2EC662" />
    <path
        d="M173.219 322.6C172.874 322.6 172.542 322.463 172.298 322.219C172.054 321.975 171.917 321.643 171.917 321.298V244.456C171.917 244.111 172.054 243.78 172.298 243.536C172.542 243.291 172.874 243.154 173.219 243.154C173.565 243.154 173.896 243.291 174.14 243.536C174.384 243.78 174.522 244.111 174.522 244.456V321.298C174.522 321.643 174.384 321.975 174.14 322.219C173.896 322.463 173.565 322.6 173.219 322.6Z"
        fill="#D9D9D9" />
    <path
        d="M153.683 391.628C153.338 391.628 153.006 391.49 152.762 391.246C152.518 391.002 152.381 390.671 152.381 390.325V334.322C152.381 333.977 152.518 333.645 152.762 333.401C153.006 333.157 153.338 333.02 153.683 333.02C154.029 333.02 154.36 333.157 154.604 333.401C154.848 333.645 154.986 333.977 154.986 334.322V390.325C154.986 390.671 154.848 391.002 154.604 391.246C154.36 391.49 154.029 391.628 153.683 391.628Z"
        fill="#D9D9D9" />
    <path
        d="M203.825 345.392C203.48 345.392 203.149 345.255 202.905 345.011C202.66 344.767 202.523 344.435 202.523 344.09V267.248C202.523 266.903 202.66 266.572 202.905 266.328C203.149 266.083 203.48 265.946 203.825 265.946C204.171 265.946 204.502 266.083 204.746 266.328C204.991 266.572 205.128 266.903 205.128 267.248V344.09C205.128 344.435 204.991 344.767 204.746 345.011C204.502 345.255 204.171 345.392 203.825 345.392Z"
        fill="#D9D9D9" />
    <path
        d="M184.941 400.744C184.595 400.744 184.264 400.607 184.02 400.363C183.776 400.119 183.638 399.787 183.638 399.442V368.184C183.638 367.839 183.776 367.508 184.02 367.264C184.264 367.019 184.595 366.882 184.941 366.882C185.286 366.882 185.617 367.019 185.862 367.264C186.106 367.508 186.243 367.839 186.243 368.184V399.442C186.243 399.787 186.106 400.119 185.862 400.363C185.617 400.607 185.286 400.744 184.941 400.744Z"
        fill="#D9D9D9" />
    <path
        d="M211.64 240.549C211.295 240.549 210.963 240.412 210.719 240.168C210.475 239.924 210.338 239.592 210.338 239.247V207.989C210.338 207.644 210.475 207.313 210.719 207.068C210.963 206.824 211.295 206.687 211.64 206.687C211.985 206.687 212.317 206.824 212.561 207.068C212.805 207.313 212.942 207.644 212.942 207.989V239.247C212.942 239.592 212.805 239.924 212.561 240.168C212.317 240.412 211.985 240.549 211.64 240.549Z"
        fill="#D9D9D9" />
    <path
        d="M146.52 254.224C146.175 254.224 145.843 254.087 145.599 253.843C145.355 253.599 145.218 253.267 145.218 252.922V221.664C145.218 221.319 145.355 220.988 145.599 220.744C145.843 220.499 146.175 220.362 146.52 220.362C146.865 220.362 147.197 220.499 147.441 220.744C147.685 220.988 147.822 221.319 147.822 221.664V252.922C147.822 253.267 147.685 253.599 147.441 253.843C147.197 254.087 146.865 254.224 146.52 254.224Z"
        fill="#D9D9D9" />
    <path
        d="M259.829 257.481C259.483 257.481 259.152 257.343 258.908 257.099C258.664 256.855 258.526 256.524 258.526 256.178V224.921C258.526 224.575 258.664 224.244 258.908 224C259.152 223.755 259.483 223.618 259.829 223.618C260.174 223.618 260.505 223.755 260.75 224C260.994 224.244 261.131 224.575 261.131 224.921V256.178C261.131 256.524 260.994 256.855 260.75 257.099C260.505 257.343 260.174 257.481 259.829 257.481Z"
        fill="#D9D9D9" />
    <path
        d="M257.224 355.161C256.878 355.161 256.547 355.023 256.303 354.779C256.059 354.535 255.922 354.204 255.922 353.858V316.089C255.922 315.743 256.059 315.412 256.303 315.168C256.547 314.923 256.878 314.786 257.224 314.786C257.569 314.786 257.901 314.923 258.145 315.168C258.389 315.412 258.526 315.743 258.526 316.089V353.858C258.526 354.204 258.389 354.535 258.145 354.779C257.901 355.023 257.569 355.161 257.224 355.161Z"
        fill="#D9D9D9" />
    <path
        d="M231.176 388.372C230.831 388.372 230.499 388.234 230.255 387.99C230.011 387.746 229.874 387.415 229.874 387.069V331.066C229.874 330.721 230.011 330.389 230.255 330.145C230.499 329.901 230.831 329.764 231.176 329.764C231.521 329.764 231.853 329.901 232.097 330.145C232.341 330.389 232.478 330.721 232.478 331.066V387.069C232.478 387.415 232.341 387.746 232.097 387.99C231.853 388.234 231.521 388.372 231.176 388.372Z"
        fill="#D9D9D9" />
    <path
        d="M236.386 292.645C236.04 292.645 235.709 292.508 235.465 292.264C235.22 292.019 235.083 291.688 235.083 291.343V214.501C235.083 214.156 235.22 213.824 235.465 213.58C235.709 213.336 236.04 213.199 236.386 213.199C236.731 213.199 237.062 213.336 237.306 213.58C237.551 213.824 237.688 214.156 237.688 214.501V291.343C237.688 291.688 237.551 292.019 237.306 292.264C237.062 292.508 236.731 292.645 236.386 292.645Z"
        fill="#D9D9D9" />
    <path
        d="M433.407 438.085C435.84 436.048 432.552 428.115 426.064 420.365C419.575 412.616 412.343 407.985 409.911 410.022C407.478 412.059 410.765 419.992 417.254 427.741C423.742 435.491 430.974 440.122 433.407 438.085Z"
        fill="#2EC662" />
    <path
        d="M417.452 429.273C423.844 410.096 413.48 389.368 394.304 382.976C375.127 376.584 354.399 386.948 348.007 406.124C341.615 425.301 351.979 446.029 371.155 452.421C390.332 458.813 411.06 448.449 417.452 429.273Z"
        fill="#2EC662" />
    <path d="M398.221 446.423H387.102V466.345H398.221V446.423Z" fill="#2EC662" />
    <path d="M375.983 446.423H364.864V466.345H375.983V446.423Z" fill="#2EC662" />
    <path
        d="M388.955 470.051C394.073 470.051 398.221 468.495 398.221 466.576C398.221 464.657 394.073 463.102 388.955 463.102C383.838 463.102 379.689 464.657 379.689 466.576C379.689 468.495 383.838 470.051 388.955 470.051Z"
        fill="#2EC662" />
    <path
        d="M366.717 469.588C371.834 469.588 375.983 468.032 375.983 466.113C375.983 464.194 371.834 462.638 366.717 462.638C361.599 462.638 357.451 464.194 357.451 466.113C357.451 468.032 361.599 469.588 366.717 469.588Z"
        fill="#2EC662" />
    <path
        d="M358.04 408.558C359.4 405.691 353.099 399.856 343.967 395.525C334.835 391.194 326.33 390.006 324.97 392.873C323.611 395.74 329.911 401.575 339.043 405.906C348.175 410.237 356.68 411.424 358.04 408.558Z"
        fill="#2EC662" />
    <path
        d="M377.258 422.178C383.997 422.178 389.46 416.715 389.46 409.975C389.46 403.236 383.997 397.773 377.258 397.773C370.518 397.773 365.055 403.236 365.055 409.975C365.055 416.715 370.518 422.178 377.258 422.178Z"
        fill="white" />
    <path
        d="M372.243 409.669C374.489 409.669 376.31 407.848 376.31 405.601C376.31 403.355 374.489 401.534 372.243 401.534C369.996 401.534 368.175 403.355 368.175 405.601C368.175 407.848 369.996 409.669 372.243 409.669Z"
        fill="#282828" />
    <path
        d="M377.153 440.552C379.969 440.552 382.252 438.269 382.252 435.453C382.252 432.637 379.969 430.354 377.153 430.354C374.337 430.354 372.054 432.637 372.054 435.453C372.054 438.269 374.337 440.552 377.153 440.552Z"
        fill="white" />
    <circle cx="412.051" cy="411.631" r="1.88052" fill="url(#paint0_linear_349_309)" />
    <circle cx="407.35" cy="412.571" r="1.88052" fill="url(#paint1_linear_349_309)" />
    <circle cx="410.171" cy="416.332" r="1.88052" fill="url(#paint2_linear_349_309)" />
    <defs>
        <linearGradient id="paint0_linear_349_309" x1="409.23" y1="409.75" x2="414.402" y2="413.041"
            gradientUnits="userSpaceOnUse">
            <stop stop-color="#2DB25A" />
            <stop offset="1" stop-color="#2DB25A" stop-opacity="0" />
        </linearGradient>
        <linearGradient id="paint1_linear_349_309" x1="404.529" y1="410.69" x2="409.7" y2="413.981"
            gradientUnits="userSpaceOnUse">
            <stop stop-color="#2DB25A" />
            <stop offset="1" stop-color="#2DB25A" stop-opacity="0" />
        </linearGradient>
        <linearGradient id="paint2_linear_349_309" x1="407.35" y1="414.451" x2="412.521" y2="417.742"
            gradientUnits="userSpaceOnUse">
            <stop stop-color="#2DB25A" />
            <stop offset="1" stop-color="#2DB25A" stop-opacity="0" />
        </linearGradient>
    </defs>
</svg>
